<?xml version="1.0" encoding="UTF-8"?>
<svg width="241px" height="74px" viewBox="0 0 241 74" version="1.1" xmlns="http://www.w3.org/2000/svg" xmlns:xlink="http://www.w3.org/1999/xlink">
    <!-- Generator: Sketch 53.2 (72643) - https://sketchapp.com -->
    <title>Group 2</title>
    <desc>Created with Sketch.</desc>
    <defs>
        <polygon id="path-1" points="0.168338224 0.180555985 85.7172649 0.180555985 85.7172649 60.0387846 0.168338224 60.0387846"></polygon>
        <polygon id="path-3" points="0 0.181556757 6.23326795 0.181556757 6.23326795 8.28697761 0 8.28697761"></polygon>
        <polygon id="path-5" points="0.364948263 0.208160618 7.9633112 0.208160618 7.9633112 8.33976834 0.364948263 8.33976834"></polygon>
    </defs>
    <g id="Page-1" stroke="none" stroke-width="1" fill="none" fill-rule="evenodd">
        <g id="SFCC" transform="translate(-611.000000, -57.000000)">
            <g id="Group-2" transform="translate(612.000000, 58.000000)">
                <path d="M123.963961,36.4208505 C124.168623,37.4999505 123.554636,40.5988503 120.746397,40.9263968 C119.736924,41.0442464 116.082355,41.0803145 112.029365,41.0828307 C112.042367,42.9629723 112.059142,44.8431139 112.081789,46.7232555 C112.109888,49.0349538 111.355405,52.437494 108.579039,52.9638328 C107.499948,53.1689162 104.401071,52.5549242 104.073527,49.7466641 C103.956098,48.7401191 103.919611,45.1006209 103.917094,41.0597626 C100.798926,41.0417281 98.3538792,41.0190808 97.9093252,41.0211776 C95.4403729,41.0304041 92.2718775,39.6300486 92.014791,36.6569669 C91.7841258,33.9887844 94.2870485,32.8853597 97.0281854,32.9272988 C99.3323173,32.9625275 101.636029,32.9772064 103.939742,32.9839168 C103.958195,29.8338514 103.980842,27.3569128 103.978746,26.9089998 C103.969518,24.4404483 104.531082,21.2715097 107.503723,21.0148407 C110.172304,20.7837551 112.114501,23.287116 112.072562,26.0278534 C112.037334,28.3424872 112.022655,30.6567016 112.015945,32.970496 C113.9183,32.9579139 115.820655,32.9407189 117.72343,32.9176522 C120.034691,32.8899726 123.437207,33.6444615 123.963961,36.4208477 L123.963961,36.4208505 Z" id="+" fill="#5E63B6" fill-rule="nonzero"></path>
                <g id="Group">
                    <circle id="Oval" stroke="#3A438B" stroke-width="2" fill="#FFFFFF" cx="36" cy="36" r="36"></circle>
                    <path d="M53.4868077,33.2205654 C53.4868077,33.1247826 53.5187827,32.9970721 53.5507578,32.8693616 C53.5827328,32.7097236 53.6466828,32.5500855 53.6466828,32.3904474 C53.9984079,30.4747906 53.2949577,28.1760024 51.856082,25.7814314 C51.696207,25.5579381 51.5683069,25.3663724 51.4404069,25.1428791 C51.2165818,24.7916753 50.9607817,24.408544 50.6730065,24.0254126 C50.6410315,23.993485 50.6090565,23.9615574 50.5770815,23.8977021 C50.5131315,23.8019193 50.4172064,23.7061365 50.3532564,23.6103536 C50.2893064,23.5145708 50.1933813,23.3868603 50.1294313,23.2910775 C50.0654813,23.1952946 49.9695563,23.0995118 49.9056062,23.003729 C49.8096812,22.9079461 49.7457312,22.7802357 49.6498061,22.6844528 C49.5858561,22.6205976 49.5219061,22.5248148 49.457956,22.4609595 C47.1877301,19.6513295 44.2140538,16.8736271 41.0805025,14.4471284 C41.3682776,18.4061526 41.3043276,22.3971043 40.8247024,25.5260105 C40.2491522,29.3253965 38.7143515,33.7314072 36.6999257,37.6904313 C32.2553988,37.1795895 27.7788969,35.9982678 24.2616454,34.3699595 C21.3519192,32.9970721 18.0265178,30.8898496 14.8609915,28.4314233 C14.8929665,28.7506995 14.9249415,29.1019032 14.9569165,29.4211793 C14.9569165,29.5169622 14.9888916,29.612745 14.9888916,29.7085279 C15.0208666,29.9320212 15.0208666,30.1874421 15.0528416,30.4109354 C15.0528416,30.5067182 15.0848166,30.6344287 15.0848166,30.7302115 C15.1167916,30.9537048 15.1487666,31.2091257 15.1807416,31.432619 C15.1807416,31.5284019 15.2127166,31.6241847 15.2127166,31.7199675 C15.2446917,32.0073161 15.2766667,32.3265922 15.3406167,32.6139407 C15.4045667,33.0609273 15.4365417,33.3802035 15.5004918,33.7314072 C15.5644418,34.1145386 15.5964168,34.4018871 15.6603668,34.6892356 C15.6603668,34.7530909 15.6923418,34.8169461 15.6923418,34.8808013 C15.7562919,35.1681498 15.7882669,35.4235708 15.8522169,35.7109193 C15.8522169,35.7747745 15.8841919,35.8067021 15.8841919,35.8705573 C15.948142,36.1898335 16.012092,36.5091096 16.076042,36.7964581 C16.2998671,37.7862142 16.5556672,38.7440426 16.8434423,39.6699434 C17.3230675,41.2343965 17.8666428,42.6711391 18.506143,43.916316 C18.6020681,44.1078817 18.6979931,44.2675198 18.7939181,44.4590855 C18.8898432,44.6506512 18.9537932,44.8102892 19.0497183,44.9699273 C19.1456433,45.161493 19.2415683,45.321131 19.3374934,45.4807691 C19.4973684,45.73619 19.6252685,45.9277557 19.7531686,46.1193214 C19.8171186,46.2151042 19.8171186,46.2470318 19.8490936,46.2470318 C20.0089687,46.4385975 20.1688437,46.6620908 20.3287188,46.8536565 C20.4566188,46.981367 20.5525439,47.1090774 20.6804439,47.2367879 C20.744394,47.3006431 20.776369,47.3325707 20.840319,47.3964259 C20.904269,47.4602812 21.0001941,47.5241364 21.0641441,47.6199192 C21.1280941,47.6837745 21.1600691,47.7157021 21.2240192,47.7795573 C21.2879692,47.8434125 21.3519192,47.9072678 21.4478443,47.971123 C21.5117943,48.0030506 21.5757443,48.0669058 21.6077193,48.0988335 C21.6716694,48.1626887 21.7675944,48.2265439 21.8315444,48.2584715 C21.8954945,48.2903991 21.9594445,48.3223267 21.9914195,48.386182 C22.0553695,48.4500372 22.1512946,48.4819648 22.2472196,48.54582 C22.3111696,48.5777477 22.3751197,48.6096753 22.4070947,48.6416029 C22.5030197,48.6735305 22.5989447,48.7373857 22.6948698,48.7693133 C22.7268448,48.801241 22.7907948,48.801241 22.8227698,48.8331686 C22.9506699,48.8970238 23.110545,48.960879 23.238445,48.9928066 C23.3343701,49.0247343 23.4302951,49.0566619 23.4942451,49.0885895 C30.4647981,51.1638844 37.563251,48.4819645 45.9407046,54.8994149 C45.2052793,44.331375 51.3125068,40.1488576 53.4868077,33.2205654 Z" id="Shape" fill="#9452BA"></path>
                </g>
                <g id="Group-49" transform="translate(133.000000, 0.000000)">
                    <g id="Group-3" transform="translate(11.675676, 0.236432)">
                        <mask id="mask-2" fill="white">
                            <use xlink:href="#path-1"></use>
                        </mask>
                        <g id="Clip-2"></g>
                        <path d="M35.7487089,6.72389653 C38.4999985,3.86127104 42.3292031,2.07656062 46.6050023,2.07656062 C52.2560293,2.07656062 57.163566,5.23691583 59.8039367,9.88425174 C62.0715197,8.88014363 64.5993035,8.28551815 67.2763691,8.28551815 C77.4638131,8.28551815 85.7172649,16.6136108 85.7172649,26.8752788 C85.7172649,37.1365297 77.4638131,45.4646224 67.2763691,45.4646224 C66.0495892,45.4646224 64.8228093,45.3532865 63.6331413,45.0926687 C61.3280293,49.2196031 56.9404772,52.0080046 51.8840757,52.0080046 C49.7649405,52.0080046 47.7575583,51.5247151 45.9732649,50.6698888 C43.6306239,56.172051 38.1651568,60.0387846 31.8077514,60.0387846 C25.1897282,60.0387846 19.5382842,55.8376263 17.3820371,49.9630934 C16.4525699,50.1490703 15.4488788,50.2608232 14.4451876,50.2608232 C6.5628556,50.2608232 0.168338224,43.7916649 0.168338224,35.8351089 C0.168338224,30.4813946 3.03096371,25.8340587 7.30676293,23.3429699 C6.41440772,21.3355876 5.93111815,19.1046996 5.93111815,16.7624757 C5.93111815,7.61625174 13.3668556,0.180514286 22.5501915,0.180514286 C27.9410178,0.217626255 32.6996896,2.74582703 35.7487089,6.72389653" id="Fill-1" fill="#00A1DF" mask="url(#mask-2)"></path>
                    </g>
                    <path d="M24.2245251,31.4614425 C24.1874131,31.6098903 24.2616371,31.6474193 24.2616371,31.6474193 C24.4105019,31.7587552 24.5964788,31.8333961 24.7453436,31.944732 C25.6001699,32.3909097 26.4554131,32.5393575 27.3102394,32.5393575 C29.0578378,32.5393575 30.1361699,31.6098903 30.1361699,30.1229097 L30.1361699,30.0857977 C30.1361699,28.7101529 28.908973,28.1897514 27.756417,27.8177977 L27.6079691,27.7806857 C26.7527259,27.483373 25.9717066,27.2602842 25.9717066,26.6652417 L25.9717066,26.6281297 C25.9717066,26.1448402 26.4183012,25.7728865 27.0875676,25.7728865 C27.8310579,25.7728865 28.7234131,26.0330873 29.3180386,26.330817 C29.3180386,26.330817 29.5040154,26.4421529 29.5411274,26.293288 C29.5782394,26.2190641 29.8759691,25.4013498 29.9130811,25.3271259 C29.9501931,25.2524849 29.8759691,25.178261 29.8384402,25.141149 C29.1691737,24.7320834 28.2772355,24.4718826 27.3102394,24.4718826 L27.1246795,24.4718826 C25.5259459,24.4718826 24.4105019,25.4384618 24.4105019,26.8141066 L24.4105019,26.8883305 C24.4105019,28.3381992 25.6372819,28.8214888 26.7898378,29.1563305 L26.9758147,29.2305544 C27.8310579,29.4907552 28.5374363,29.714261 28.5374363,30.3088865 L28.5374363,30.3459985 C28.5374363,30.903929 28.0541467,31.2754656 27.3102394,31.2754656 C27.0129266,31.2754656 26.0834595,31.2754656 25.0422394,30.6437282 C24.9309035,30.5690873 24.8566795,30.5319753 24.7453436,30.4577514 C24.7078147,30.4202224 24.5593668,30.3831104 24.5218378,30.5319753 L24.2245251,31.4614425 Z" id="Fill-4" fill="#FFFFFF"></path>
                    <path d="M49.9153483,31.4614425 C49.8782363,31.6098903 49.9524602,31.6474193 49.9524602,31.6474193 C50.1013251,31.7587552 50.2873019,31.8333961 50.4361668,31.944732 C51.2909931,32.3909097 52.1462363,32.5393575 53.0010625,32.5393575 C54.748661,32.5393575 55.8269931,31.6098903 55.8269931,30.1229097 L55.8269931,30.0857977 C55.8269931,28.7101529 54.5997961,28.1897514 53.4472402,27.8177977 L53.2987923,27.7806857 C52.443549,27.483373 51.6625297,27.2602842 51.6625297,26.6652417 L51.6625297,26.6281297 C51.6625297,26.1448402 52.1091243,25.7728865 52.7779737,25.7728865 C53.5214641,25.7728865 54.4138193,26.0330873 55.0088618,26.330817 C55.0088618,26.330817 55.1948386,26.4421529 55.2319506,26.293288 C55.2690625,26.2190641 55.5667923,25.4013498 55.6039042,25.3271259 C55.6405992,25.2524849 55.5667923,25.178261 55.5296803,25.141149 C54.8599969,24.7320834 53.9680587,24.4718826 53.0010625,24.4718826 L52.8155027,24.4718826 C51.2167691,24.4718826 50.1013251,25.4384618 50.1013251,26.8141066 L50.1013251,26.8883305 C50.1013251,28.3381992 51.328105,28.8214888 52.480661,29.1563305 L52.6666378,29.2305544 C53.5214641,29.4907552 54.2282595,29.714261 54.2282595,30.3088865 L54.2282595,30.3459985 C54.2282595,30.903929 53.7449699,31.2754656 53.0010625,31.2754656 C52.7037498,31.2754656 51.7742826,31.2754656 50.7330625,30.6437282 C50.6217266,30.5690873 50.5475027,30.5319753 50.4361668,30.4577514 C50.3986378,30.4202224 50.249773,30.3831104 50.212661,30.5319753 L49.9153483,31.4614425 Z" id="Fill-6" fill="#FFFFFF"></path>
                    <path d="M67.4268185,28.5242178 C67.4268185,29.379461 67.2783707,30.0487274 66.943529,30.532017 C66.6457992,31.0153066 66.1629266,31.2383954 65.5303552,31.2383954 C64.8615058,31.2383954 64.4149112,31.0153066 64.1175985,30.532017 C63.8207027,30.0487274 63.6714208,29.379461 63.6714208,28.5242178 C63.6714208,27.6693915 63.8207027,27.0001251 64.1175985,26.5535305 C64.4149112,26.1077699 64.8986178,25.8475691 65.5303552,25.8475691 C66.1629266,25.8475691 66.6457992,26.0706579 66.943529,26.5535305 C67.2783707,27.0001251 67.4268185,27.6693915 67.4268185,28.5242178 M68.9137992,26.9625961 C68.7653514,26.4793066 68.5422625,26.033129 68.2445328,25.6987042 C67.9472201,25.3271676 67.5752664,25.0665498 67.1290888,24.843461 C66.6833282,24.6203722 66.1629266,24.5461483 65.5678842,24.5461483 C64.9728417,24.5461483 64.4524402,24.6579012 64.0062625,24.843461 C63.5605019,25.0665498 63.1881313,25.3271676 62.8908185,25.6987042 C62.5935058,26.0706579 62.370417,26.4793066 62.2219691,26.9625961 C62.0726873,27.4463027 61.9984633,27.9667042 61.9984633,28.5242178 C61.9984633,29.0817313 62.0726873,29.6025498 62.2219691,30.0858394 C62.370417,30.569129 62.5935058,31.0153066 62.8908185,31.3497313 C63.1881313,31.7216849 63.5605019,31.9818857 64.0062625,32.2049745 C64.4524402,32.3909514 64.9728417,32.5027042 65.5678842,32.5027042 C66.1629266,32.5027042 66.6833282,32.3909514 67.1290888,32.2049745 C67.5752664,32.0189977 67.9472201,31.7216849 68.2445328,31.3497313 C68.5422625,30.9781946 68.7653514,30.569129 68.9137992,30.0858394 C69.0626641,29.6025498 69.137305,29.0817313 69.137305,28.5242178 C69.0997761,27.9667042 69.0255521,27.4463027 68.9137992,26.9625961" id="Fill-8" fill="#FFFFFF"></path>
                    <path d="M80.922732,30.9780695 C80.8856201,30.8296216 80.7371722,30.9038456 80.7371722,30.9038456 C80.5140834,30.9780695 80.2905776,31.0522934 80.0674888,31.0898224 C79.807288,31.1269344 79.5470873,31.1640463 79.2493575,31.1640463 C78.5433961,31.1640463 77.9854656,30.9409575 77.576817,30.5318919 C77.1677514,30.1228263 76.9446625,29.4535598 76.9446625,28.5240927 C76.9446625,27.7063784 77.1302224,27.0742239 77.5021761,26.5909344 C77.8737127,26.1076448 78.3949483,25.884556 79.1384386,25.884556 C79.7326471,25.884556 80.2163537,25.9587799 80.6996432,26.1076448 C80.6996432,26.1076448 80.8109792,26.1447568 80.8856201,25.9958919 C80.997373,25.6243552 81.1087089,25.4012664 81.2575737,24.9922008 C81.2946857,24.8804479 81.1829328,24.8437529 81.1829328,24.8062239 C80.997373,24.732 80.5507784,24.6202471 80.2163537,24.5460232 C79.881929,24.5089112 79.5470873,24.4717992 79.1009097,24.4717992 C78.4687552,24.4717992 77.9483537,24.5835521 77.4650641,24.769112 C76.9817745,24.9922008 76.6098208,25.2524015 76.2749792,25.6243552 C75.9780834,25.9958919 75.7178826,26.4049575 75.5690178,26.8882471 C75.4201529,27.3719537 75.345929,27.8923552 75.345929,28.4498687 C75.345929,29.6766486 75.6807707,30.6436448 76.3125081,31.3500232 C76.9446625,32.0564015 77.9483537,32.4283552 79.2122456,32.4283552 C79.9561529,32.4283552 80.7367552,32.2794903 81.2946857,32.0564015 C81.2946857,32.0564015 81.4060216,32.0192896 81.3689097,31.8704247 L80.922732,30.9780695 Z" id="Fill-10" fill="#FFFFFF"></path>
                    <path d="M83.4882116,27.706295 C83.5624355,27.2230054 83.6737714,26.8510517 83.8968602,26.553739 C84.194173,26.1075614 84.6778795,25.8473606 85.310034,25.8473606 C85.9421884,25.8473606 86.387949,26.1075614 86.6856788,26.553739 C86.8712386,26.8510517 86.9829915,27.2601174 87.0201035,27.706295 L83.4882116,27.706295 Z M88.3961653,26.6650749 C88.2844124,26.1817853 87.9495707,25.7356077 87.7635938,25.5129359 C87.4291691,25.1780942 87.1314394,24.9178934 86.8341266,24.8061405 C86.425478,24.6205807 85.9421884,24.5088278 85.4213699,24.5088278 C84.7892154,24.5088278 84.2317019,24.6205807 83.7855243,24.8436695 C83.3397637,25.0663413 82.9302811,25.364071 82.6329683,25.6989127 C82.3352386,26.0704494 82.1125668,26.4795151 81.9637019,26.9999166 C81.8148371,27.4832062 81.7410301,28.0036077 81.7410301,28.5986502 C81.7410301,29.1565807 81.8148371,29.7140942 81.9637019,30.1973838 C82.1125668,30.6806734 82.3727676,31.089739 82.6700803,31.4612757 C83.004922,31.8332293 83.4135707,32.0934301 83.9339722,32.2794069 C84.4176788,32.4653838 85.0494162,32.5767197 85.7190996,32.5767197 C87.1689683,32.5767197 87.9124587,32.242295 88.2097714,32.0934301 C88.2468834,32.0563181 88.3215243,32.0192062 88.2468834,31.8703413 L87.9124587,30.9779861 C87.8753467,30.8295382 87.7264819,30.9037622 87.7264819,30.9037622 C87.3545282,31.05221 86.8712386,31.2757158 85.6819876,31.2757158 C84.9009683,31.2757158 84.3434548,31.05221 83.9715012,30.6806734 C83.5999645,30.3087197 83.4135707,29.7883181 83.4135707,29.0448278 L88.3586363,29.0448278 C88.3586363,29.0448278 88.5070842,29.0448278 88.5070842,28.9330749 C88.5446131,28.7475151 88.730173,27.7805189 88.3961653,26.6650749 L88.3961653,26.6650749 Z" id="Fill-12" fill="#FFFFFF"></path>
                    <path d="M43.7808232,27.706295 C43.8550471,27.2230054 43.9668,26.8510517 44.1894718,26.553739 C44.4872015,26.1075614 44.9704911,25.8473606 45.6026456,25.8473606 C46.271912,25.8473606 46.6809776,26.1075614 46.9782903,26.553739 C47.1642672,26.8510517 47.2756031,27.2601174 47.3127151,27.706295 L43.7808232,27.706295 Z M48.7254718,26.6650749 C48.6141359,26.1817853 48.2797112,25.7356077 48.0937344,25.5129359 C47.7588927,25.1780942 47.4615799,24.9178934 47.1642672,24.8061405 C46.7552015,24.6205807 46.271912,24.5088278 45.7515104,24.5088278 C45.118939,24.5088278 44.5614255,24.6205807 44.1152479,24.8436695 C43.6690703,25.0663413 43.2600046,25.364071 42.9631089,25.6989127 C42.6653792,26.0704494 42.4422903,26.4795151 42.2938425,26.9999166 C42.1449776,27.4832062 42.0703367,28.0036077 42.0703367,28.5986502 C42.0703367,29.1565807 42.1449776,29.7140942 42.2938425,30.1973838 C42.4422903,30.6806734 42.7024911,31.089739 42.9998039,31.4612757 C43.3346456,31.8332293 43.7437112,32.0934301 44.2641127,32.2794069 C44.7474023,32.4653838 45.3795568,32.5767197 46.0484062,32.5767197 C47.4986919,32.5767197 48.2421822,32.242295 48.539912,32.0934301 C48.5766069,32.0563181 48.6512479,32.0192062 48.5766069,31.8703413 L48.2421822,30.9779861 C48.2050703,30.8295382 48.0562054,30.9037622 48.0562054,30.9037622 C47.6846687,31.05221 47.2013792,31.2757158 46.0117112,31.2757158 C45.2306919,31.2757158 44.6731784,31.05221 44.3012247,30.6806734 C43.929271,30.3087197 43.7437112,29.7883181 43.7437112,29.0448278 L48.6883598,29.0448278 C48.6883598,29.0448278 48.8372247,29.0448278 48.8372247,28.9330749 C48.8743367,28.7475151 49.0232015,27.7805189 48.7254718,26.6650749 L48.7254718,26.6650749 Z" id="Fill-14" fill="#FFFFFF"></path>
                    <path d="M33.0731027,30.9780695 C32.8871259,30.8296216 32.8500139,30.7920927 32.77579,30.6807568 C32.6644541,30.5318919 32.6269251,30.3088031 32.6269251,30.0486023 C32.6269251,29.6024247 32.77579,29.305112 33.0731027,29.0820232 C33.0731027,29.0820232 33.4821683,28.7100695 34.5233884,28.7100695 C35.2293498,28.7100695 35.8615042,28.8218224 35.8615042,28.8218224 L35.8615042,31.0898224 C35.8615042,31.0898224 35.2293498,31.2382703 34.5233884,31.2753822 C33.5192803,31.3129112 33.0731027,30.9780695 33.0731027,30.9780695 M35.04379,27.4832896 C34.8578131,27.4832896 34.5976124,27.4461776 34.2631876,27.4461776 C33.854122,27.4461776 33.4450564,27.4832896 33.0359907,27.5946255 C32.6644541,27.7063784 32.2925004,27.8552432 31.9951876,28.0779151 C31.6974579,28.3014208 31.4372571,28.5616216 31.2888093,28.8960463 C31.1024154,29.230888 31.0281915,29.6024247 31.0281915,30.0486023 C31.0281915,30.4947799 31.1024154,30.8663166 31.2512803,31.1640463 C31.4001452,31.4613591 31.623234,31.7215598 31.8834347,31.9446486 C32.1436355,32.1306255 32.5155892,32.2794903 32.8871259,32.3908263 C33.2590795,32.4650502 33.7052571,32.5396911 34.1885467,32.5396911 C34.7089483,32.5396911 35.1926548,32.5025792 35.6759444,32.4283552 C36.158817,32.3537143 36.7538595,32.2423784 36.9398363,32.1677375 C37.0882842,32.1306255 37.274261,32.0935135 37.274261,32.0935135 C37.3860139,32.0564015 37.3860139,31.9446486 37.3860139,31.9446486 L37.3860139,27.4086486 C37.3860139,26.4049575 37.1258131,25.6614672 36.6054116,25.2152896 C36.0845931,24.769112 35.3039907,24.5460232 34.3374116,24.5460232 C33.9654579,24.5460232 33.3704154,24.5835521 32.9988788,24.6577761 C32.9988788,24.6577761 31.9205467,24.8804479 31.4743691,25.2152896 C31.4743691,25.2152896 31.3630332,25.2895135 31.4372571,25.4012664 L31.7716819,26.3307336 C31.8092108,26.4424865 31.9205467,26.4049575 31.9205467,26.4049575 C31.9205467,26.4049575 31.9576587,26.4049575 31.9951876,26.3678456 C32.9617668,25.847444 34.1514347,25.847444 34.1514347,25.847444 C34.6718363,25.847444 35.0809019,25.9587799 35.3782147,26.1818687 C35.6384154,26.4049575 35.7872803,26.7026873 35.7872803,27.3719537 L35.7872803,27.5946255 C35.4528556,27.5204015 35.04379,27.4832896 35.04379,27.4832896" id="Fill-16" fill="#FFFFFF"></path>
                    <path d="M75.0112124,24.9178934 C75.0483243,24.8061405 74.9741004,24.7694456 74.9369884,24.7319166 C74.8627645,24.6948046 74.4161699,24.6205807 74.1188571,24.5834687 C73.4871197,24.5459398 73.152278,24.6576927 72.8549653,24.8061405 C72.5572355,24.9550054 72.2228108,25.1780942 71.999722,25.438295 L71.999722,24.8436695 C71.999722,24.7694456 71.9254981,24.6948046 71.8512741,24.6948046 L70.5869653,24.6948046 C70.5127413,24.6948046 70.4381004,24.7694456 70.4381004,24.8436695 L70.4381004,32.242295 C70.4381004,32.3165189 70.5127413,32.3907429 70.5869653,32.3907429 L71.8883861,32.3907429 C71.96261,32.3907429 72.036834,32.3165189 72.036834,32.242295 L72.036834,28.5615382 C72.036834,28.0782486 72.0739459,27.5578471 72.1856988,27.2601174 C72.2970347,26.9628046 72.4458996,26.7026039 72.6318764,26.516627 C72.8174363,26.3306502 73.0038301,26.2193143 73.2269189,26.1446734 C73.4500077,26.0704494 73.7102085,26.0333375 73.8957683,26.0333375 C74.1559691,26.0333375 74.4536988,26.1075614 74.4536988,26.1075614 C74.5654517,26.1075614 74.6025637,26.0704494 74.6392587,25.9591135 C74.7510116,25.7356077 74.9741004,25.0663413 75.0112124,24.9178934" id="Fill-18" fill="#FFFFFF"></path>
                    <path d="M62.8163027,21.4975042 C62.6678548,21.4603923 62.51899,21.4228633 62.3334301,21.3857514 C62.1474533,21.3486394 61.9239475,21.3486394 61.6637467,21.3486394 C60.7718085,21.3486394 60.0650131,21.6088402 59.5817236,22.0921297 C59.098434,22.5754193 58.7640093,23.3564386 58.5780324,24.3230178 L58.5038085,24.6578595 L57.3883645,24.6578595 C57.3883645,24.6578595 57.2394996,24.6578595 57.2394996,24.8063073 L57.0539398,25.8475274 C57.0539398,25.9588633 57.0910517,25.9959753 57.2023876,25.9959753 L58.2807197,25.9959753 L57.1652757,32.2049328 C57.0910517,32.6882224 56.9792988,33.097288 56.8675459,33.4321297 C56.75621,33.7294425 56.6444571,33.9525313 56.5335382,34.1380911 C56.4217853,34.286956 56.2729205,34.4358208 56.0869436,34.4729328 C55.9009668,34.5471568 55.7154069,34.5471568 55.4923181,34.5471568 C55.3805653,34.5471568 55.1950054,34.5100448 55.0832525,34.5100448 C54.9719166,34.4729328 54.8972757,34.4729328 54.8230517,34.4358208 C54.8230517,34.4358208 54.7112988,34.3987089 54.6370749,34.5100448 C54.5999629,34.6217977 54.3026502,35.4024 54.2651212,35.5141529 C54.2280093,35.6254888 54.2651212,35.7001297 54.3397622,35.7001297 C54.48821,35.7368247 54.5999629,35.7743537 54.7855228,35.8485776 C55.0461405,35.9228015 55.3063413,35.9228015 55.5290131,35.9228015 C55.9756077,35.9228015 56.3842564,35.8485776 56.75621,35.7368247 C57.0910517,35.6254888 57.3879475,35.4024 57.6856772,35.1050873 C57.98299,34.7706625 58.1689668,34.4358208 58.3178317,33.9896432 C58.5038085,33.5434656 58.6526734,32.9859521 58.7640093,32.3166857 L59.8794533,25.9959753 L61.5152988,25.9959753 C61.5152988,25.9959753 61.6637467,25.9959753 61.6637467,25.8475274 L61.8501405,24.8063073 C61.8501405,24.6945544 61.8126116,24.6578595 61.7008587,24.6578595 L60.1021251,24.6578595 C60.1021251,24.6203305 60.176766,24.062817 60.3627429,23.5424154 C60.4369668,23.3193266 60.5854147,23.1333498 60.6971676,23.0215969 C60.8089205,22.910261 60.9573683,22.7989251 61.1062332,22.7613961 C61.2550981,22.7242842 61.4406579,22.6871722 61.6266347,22.6871722 C61.7754996,22.6871722 61.9239475,22.6871722 62.0357004,22.7242842 C62.1841483,22.7613961 62.2587892,22.7613961 62.2959012,22.7989251 C62.444349,22.8356201 62.481878,22.7989251 62.51899,22.7242842 L62.8909436,21.6834811 C62.9280556,21.5717282 62.8163027,21.4975042 62.8163027,21.4975042" id="Fill-20" fill="#FFFFFF"></path>
                    <path d="M40.657705,32.2050162 C40.657705,32.2792402 40.5834811,32.3534641 40.5092571,32.3534641 L39.2078363,32.3534641 C39.1336124,32.3534641 39.0589714,32.2792402 39.0589714,32.2050162 L39.0589714,21.6460355 C39.0589714,21.5718116 39.1336124,21.4975876 39.2078363,21.4975876 L40.5092571,21.4975876 C40.5834811,21.4975876 40.657705,21.5718116 40.657705,21.6460355 L40.657705,32.2050162 Z" id="Fill-22" fill="#FFFFFF"></path>
                    <g id="Group-26" transform="translate(0.000000, 63.618672)">
                        <mask id="mask-4" fill="white">
                            <use xlink:href="#path-3"></use>
                        </mask>
                        <g id="Clip-25"></g>
                        <path d="M3.70923707,0.181556757 C4.17292819,0.181556757 4.63661931,0.260367568 5.07404015,0.392135907 C5.51229498,0.550174517 5.89842625,0.734066409 6.23326795,0.997603089 L5.71828726,1.89246023 C5.1516,1.47130193 4.4819166,1.23403552 3.70923707,1.23403552 C2.91070425,1.23403552 2.29272741,1.49715521 1.88032587,2.05008185 C1.46792432,2.60300849 1.26193205,3.31355676 1.26193205,4.23468417 C1.26193205,5.12912432 1.46792432,5.83967259 1.88032587,6.39259923 C2.29272741,6.94510888 2.91070425,7.20822857 3.70923707,7.20822857 C4.37892046,7.20822857 5.07404015,6.99764942 5.74414054,6.55022085 L6.20783166,7.44507799 C5.46058842,7.99758764 4.61076602,8.28697761 3.63167722,8.28697761 C2.78185483,8.28697761 2.08631815,8.10266873 1.54548417,7.70819768 C1.00465019,7.31372664 0.618101931,6.81334054 0.360820077,6.20787336 C0.128974517,5.60282317 -0.000291891892,4.94481544 -0.000291891892,4.23468417 C-0.000291891892,2.99747954 0.334966795,2.02381158 1.00465019,1.28657606 C1.64848031,0.550174517 2.55000927,0.181556757 3.70923707,0.181556757" id="Fill-24" fill="#7D868C" mask="url(#mask-4)"></path>
                    </g>
                    <g id="Group-29" transform="translate(6.254826, 63.618672)">
                        <mask id="mask-6" fill="white">
                            <use xlink:href="#path-5"></use>
                        </mask>
                        <g id="Clip-28"></g>
                        <path d="M1.70431506,4.23460077 C1.70431506,5.1553112 1.91030734,5.89254672 2.32229189,6.44505637 C2.73469344,6.99756602 3.35308726,7.28695598 4.17705637,7.28695598 C5.02729575,7.28695598 5.64527259,6.99756602 6.05725714,6.44505637 C6.46965869,5.89254672 6.67565097,5.1553112 6.67565097,4.23460077 C6.67565097,3.31347336 6.46965869,2.57623784 6.05725714,2.05041544 C5.64527259,1.4974888 5.02729575,1.23436911 4.17705637,1.23436911 C3.32723398,1.23436911 2.70884015,1.4974888 2.32229189,2.05041544 C1.91030734,2.57623784 1.70431506,3.31347336 1.70431506,4.23460077 M7.9633112,4.23460077 C7.9633112,5.02395985 7.80902548,5.73450811 7.49962008,6.36582857 C7.19063166,6.99756602 6.75279382,7.47126486 6.18610656,7.81361236 C5.61941931,8.15554286 4.94973591,8.33985174 4.15120309,8.33985174 C3.37852355,8.33985174 2.68340386,8.15554286 2.11629961,7.81361236 C1.54961236,7.47126486 1.11219151,6.97129575 0.8027861,6.36582857 C0.493797683,5.76077838 0.364948263,5.05023012 0.364948263,4.26045405 C0.364948263,3.0240834 0.699789961,2.05041544 1.36947336,1.31317992 C2.03915676,0.576778378 2.966539,0.208160618 4.15120309,0.208160618 C4.94973591,0.208160618 5.64527259,0.366199228 6.21195985,0.70812973 C6.7786471,1.05006023 7.21648494,1.52375907 7.49962008,2.12880927 C7.83487876,2.73427645 7.9633112,3.41855444 7.9633112,4.23460077" id="Fill-27" fill="#7D868C" mask="url(#mask-6)"></path>
                    </g>
                    <path d="M15.6607923,65.7475645 C15.6607923,65.1950548 15.634939,64.6162749 15.5577961,64.0108077 L16.7683135,64.0108077 C16.8200201,64.2739274 16.8454564,64.6425452 16.8713097,65.0899737 L16.8971629,65.0899737 C17.1290085,64.6950857 17.4638502,64.4056958 17.901688,64.1421591 C18.3395259,63.9057266 18.8290703,63.7743753 19.3957575,63.7743753 C20.0395876,63.7743753 20.5545683,63.9057266 20.9669699,64.1951166 C21.3789544,64.4845066 21.6625066,64.8527073 21.8426456,65.3264062 L21.8684988,65.3264062 C22.1257807,64.8527073 22.4864757,64.4582363 22.9243135,64.1951166 C23.3625683,63.9057266 23.9034023,63.7743753 24.5213792,63.7743753 C25.139773,63.7743753 25.6547537,63.9057266 26.0671552,64.1951166 C26.4791398,64.4845066 26.7881282,64.8268541 26.9941205,65.2738656 C27.2001127,65.7217112 27.3031089,66.2216803 27.3031089,66.7475027 L27.3031089,71.6688 L26.0413019,71.6688 L26.0413019,66.9847691 C26.0413019,66.3793019 25.9124525,65.8793328 25.6289004,65.4844448 C25.3457653,65.0899737 24.9079274,64.8793946 24.2636803,64.8793946 C23.8004062,64.8793946 23.4138579,65.0107459 23.1048695,65.2480124 C22.7700278,65.4844448 22.5381822,65.800522 22.3580432,66.2216803 C22.1774873,66.6161514 22.1003444,67.0635799 22.1003444,67.5110085 L22.1003444,71.7213405 L20.8381205,71.7213405 L20.8381205,66.9322286 C20.8381205,66.3530317 20.6834178,65.8530625 20.4002826,65.4585915 C20.1171475,65.0632865 19.6534564,64.8527073 19.0609158,64.8527073 C18.4166687,64.8527073 17.901688,65.0899737 17.5151398,65.5636726 C17.1290085,66.0369544 16.9484525,66.6161514 16.9484525,67.3004293 L16.9484525,71.7213405 L15.6866456,71.7213405 L15.6866456,65.7475645 L15.6607923,65.7475645 Z" id="Fill-30" fill="#7D868C"></path>
                    <path d="M29.106417,65.7475645 C29.106417,65.1950548 29.0805637,64.6162749 29.0034208,64.0108077 L30.2139382,64.0108077 C30.2656448,64.2739274 30.2910811,64.6425452 30.3169344,65.0899737 L30.3427876,65.0899737 C30.5746332,64.6950857 30.9094749,64.4056958 31.3473127,64.1421591 C31.7851506,63.9057266 32.274695,63.7743753 32.8413822,63.7743753 C33.4852124,63.7743753 34.0001931,63.9057266 34.4125946,64.1951166 C34.8245792,64.4845066 35.1081313,64.8527073 35.2882703,65.3264062 L35.3141236,65.3264062 C35.5714054,64.8527073 35.9321004,64.4582363 36.3699382,64.1951166 C36.8077761,63.9057266 37.349027,63.7743753 37.9670039,63.7743753 C38.5849807,63.7743753 39.1003784,63.9057266 39.5127799,64.1951166 C39.9247645,64.4845066 40.2337529,64.8268541 40.4397452,65.2738656 C40.6457375,65.7217112 40.7228803,66.2216803 40.7228803,66.7475027 L40.7228803,71.6688 L39.4610734,71.6688 L39.4610734,66.9847691 C39.4610734,66.3793019 39.3322239,65.8793328 39.0486718,65.4844448 C38.7655367,65.0899737 38.3276988,64.8793946 37.6838687,64.8793946 C37.2201776,64.8793946 36.8336293,65.0107459 36.5246409,65.2480124 C36.1897992,65.4844448 35.9579537,65.800522 35.7778147,66.2216803 C35.5972587,66.6161514 35.5201158,67.0635799 35.5201158,67.5110085 L35.5201158,71.7213405 L34.2578919,71.7213405 L34.2578919,66.9322286 C34.2578919,66.3530317 34.1031892,65.8530625 33.8200541,65.4585915 C33.5369189,65.0632865 33.0732278,64.8527073 32.4806873,64.8527073 C31.8364402,64.8527073 31.3214595,65.0899737 30.9353282,65.5636726 C30.5487799,66.0369544 30.3682239,66.6161514 30.3682239,67.3004293 L30.3682239,71.7213405 L29.106417,71.7213405 L29.106417,65.7475645 Z" id="Fill-32" fill="#7D868C"></path>
                    <path d="M47.8065544,67.3267413 C47.7807012,66.5636525 47.6005622,65.9319151 47.2398672,65.4844865 C46.8791722,65.0107876 46.3383382,64.8002085 45.6428015,64.8002085 C44.9476819,64.8002085 44.4064309,65.0374749 44.0198826,65.5111737 C43.6337514,65.9844556 43.4277591,66.5899228 43.4019058,67.3267413 L47.8065544,67.3267413 Z M49.0170718,68.3266795 L43.4277591,68.3266795 C43.4794656,69.1164556 43.7108942,69.7481931 44.1232958,70.1952046 C44.5352803,70.6689035 45.1278208,70.8794826 45.9005004,70.8794826 C46.3641915,70.8794826 46.7503228,70.8269421 47.1110178,70.6951737 C47.4717127,70.5638224 47.8324077,70.3795135 48.1931027,70.1159768 L48.75979,70.9582934 C48.3473884,71.2743707 47.8836973,71.5108031 47.3945699,71.6688417 C46.9050255,71.8268803 46.3900448,71.9056911 45.7975042,71.9056911 C44.6382764,71.9056911 43.7367475,71.5374903 43.0929174,70.7744015 C42.4490873,70.037166 42.1142456,69.0376448 42.1142456,67.8004402 C42.1142456,67.0110811 42.242678,66.3005328 42.5262301,65.6950656 C42.8097822,65.0900154 43.1959135,64.6163166 43.7367475,64.2739691 C44.2521452,63.9316216 44.8959753,63.774 45.6428015,63.774 C46.7503228,63.774 47.5747089,64.1422008 48.1413961,64.852749 C48.7080834,65.5899846 49.0170718,66.5369653 49.0170718,67.7478996 C49.0429251,68.0372896 49.0429251,68.2215985 49.0170718,68.3266795 L49.0170718,68.3266795 Z" id="Fill-34" fill="#7D868C"></path>
                    <path d="M50.4854131,65.7475645 C50.4854131,65.1950548 50.4595598,64.6162749 50.382417,64.0108077 L51.5929344,64.0108077 C51.6446409,64.3527382 51.6700772,64.7738965 51.6959305,65.2480124 L51.7217838,65.2480124 C52.1596216,64.3001977 52.9581544,63.8002286 54.091112,63.8002286 C54.1686718,63.8002286 54.3233745,63.8269158 54.5293668,63.8527691 L54.4263707,64.9582054 C54.3233745,64.9319351 54.1686718,64.9319351 53.9626795,64.9319351 C53.2412896,64.9319351 52.7004556,65.1687846 52.3143243,65.6691707 C51.9277761,66.1691398 51.7476371,66.8004602 51.7476371,67.5898193 L51.7476371,71.7213405 L50.4854131,71.7213405 L50.4854131,65.7475645 Z" id="Fill-36" fill="#7D868C"></path>
                    <path d="M58.5218224,63.8002286 C58.9855135,63.8002286 59.4492046,63.8790394 59.8866255,64.0108077 C60.3248803,64.1688463 60.7114286,64.3527382 61.0462703,64.6162749 L60.5308726,65.511132 C59.9641853,65.0899737 59.2949189,64.8527073 58.5218224,64.8527073 C57.7232896,64.8527073 57.1053127,65.115827 56.6929112,65.6687537 C56.2809266,66.2216803 56.0749344,66.9322286 56.0749344,67.853356 C56.0749344,68.7477961 56.2809266,69.4583444 56.6929112,70.011271 C57.1053127,70.5637807 57.7232896,70.8269004 58.5218224,70.8269004 C59.1915058,70.8269004 59.8866255,70.6163212 60.5567259,70.1688927 L61.020417,71.0637498 C60.2731737,71.6162595 59.4233514,71.9056494 58.4442625,71.9056494 C57.5944402,71.9056494 56.8989035,71.7213405 56.3584865,71.3268695 C55.8172355,70.9323985 55.4311042,70.4320124 55.1734054,69.8265452 C54.9415598,69.221495 54.8122934,68.5634873 54.8122934,67.853356 C54.8122934,66.6161514 55.1475521,65.6424834 55.8172355,64.9052479 C56.4614826,64.1688463 57.3630116,63.8002286 58.5218224,63.8002286" id="Fill-38" fill="#7D868C"></path>
                    <path d="M67.1507305,67.3267413 C67.1248772,66.5636525 66.9447382,65.9319151 66.5840432,65.4844865 C66.2233483,65.0107876 65.6825143,64.8002085 64.9873946,64.8002085 C64.2918579,64.8002085 63.7506069,65.0374749 63.3644757,65.5111737 C62.9779274,65.9844556 62.7719351,66.5899228 62.7460819,67.3267413 L67.1507305,67.3267413 Z M68.3612479,68.3266795 L62.7719351,68.3266795 C62.8232247,69.1164556 63.0554873,69.7481931 63.4674718,70.1952046 C63.8794564,70.6689035 64.4719969,70.8794826 65.2446764,70.8794826 C65.7083676,70.8794826 66.0949158,70.8269421 66.4551938,70.6951737 C66.8158888,70.5638224 67.1765838,70.3795135 67.5372788,70.1159768 L68.103549,70.9582934 C67.6915645,71.2743707 67.2282903,71.5108031 66.7387459,71.6688417 C66.2492015,71.8268803 65.7342208,71.9056911 65.1416803,71.9056911 C63.9824525,71.9056911 63.0809236,71.5374903 62.4370934,70.7744015 C61.7928463,70.037166 61.4584216,69.0376448 61.4584216,67.8004402 C61.4584216,67.0110811 61.5868541,66.3005328 61.8704062,65.6950656 C62.1539583,65.0900154 62.5400896,64.6163166 63.0809236,64.2739691 C63.5963212,63.9316216 64.2401514,63.774 64.9873946,63.774 C66.0949158,63.774 66.9188849,64.1422008 67.4855722,64.852749 C68.0522595,65.5899846 68.3612479,66.5369653 68.3612479,67.7478996 C68.3871012,68.0372896 68.3871012,68.2215985 68.3612479,68.3266795 L68.3612479,68.3266795 Z" id="Fill-40" fill="#7D868C"></path>
                    <path d="M76.2173514,63.8002286 C76.6810425,63.8002286 77.1447336,63.8790394 77.5825714,64.0108077 C78.0204093,64.1688463 78.4069575,64.3527382 78.7417992,64.6162749 L78.2264015,65.511132 C77.6597143,65.0899737 76.9904479,64.8527073 76.2173514,64.8527073 C75.4188185,64.8527073 74.8008417,65.115827 74.3884402,65.6687537 C73.9764556,66.2216803 73.7704633,66.9322286 73.7704633,67.853356 C73.7704633,68.7477961 73.9764556,69.4583444 74.3884402,70.011271 C74.8008417,70.5637807 75.4188185,70.8269004 76.2173514,70.8269004 C76.8870347,70.8269004 77.5825714,70.6163212 78.2522548,70.1688927 L78.7159459,71.0637498 C77.9687027,71.6162595 77.1188803,71.9056494 76.1397915,71.9056494 C75.2899691,71.9056494 74.5944324,71.7213405 74.0540154,71.3268695 C73.5131815,70.9323985 73.1266332,70.4320124 72.8689344,69.8265452 C72.6370888,69.221495 72.5082394,68.5634873 72.5082394,67.853356 C72.5082394,66.6161514 72.8430811,65.6424834 73.5131815,64.9052479 C74.1311583,64.1688463 75.0585405,63.8002286 76.2173514,63.8002286" id="Fill-42" fill="#7D868C"></path>
                    <polygon id="Fill-44" fill="#7D868C" points="80.1839537 71.7215907 81.4203243 71.7215907 81.4203243 61.0108263 80.1839537 61.0108263"></polygon>
                    <path d="M84.2281158,67.8532726 C84.2281158,68.773983 84.4341081,69.5112185 84.8460927,70.0637282 C85.2584942,70.6162378 85.876471,70.9056278 86.7008571,70.9056278 C87.5510965,70.9056278 88.1690734,70.6162378 88.5810579,70.0637282 C88.9934595,69.5112185 89.1994517,68.773983 89.1994517,67.8532726 C89.1994517,66.9321452 88.9934595,66.1949097 88.5810579,65.6690873 C88.1690734,65.1161606 87.5510965,64.8530409 86.7008571,64.8530409 C85.8510347,64.8530409 85.2326409,65.1161606 84.8460927,65.6690873 C84.4086718,66.1949097 84.2281158,66.9321452 84.2281158,67.8532726 M90.487529,67.8532726 C90.487529,68.6426317 90.3328263,69.3531799 90.0234208,69.9845004 C89.7144324,70.6162378 89.2765946,71.0899367 88.7099073,71.4322842 C88.1436371,71.7742147 87.4735367,71.9585236 86.6750039,71.9585236 C85.9027413,71.9585236 85.2072046,71.7742147 84.6401004,71.4322842 C84.0738301,71.0899367 83.6355753,70.5899676 83.3265869,69.9845004 C83.0430347,69.3794502 82.888749,68.6689019 82.888749,67.8791259 C82.888749,66.6427552 83.2235907,65.6690873 83.8932741,64.9318517 C84.5629575,64.1954502 85.4903398,63.8268324 86.6750039,63.8268324 C87.4735367,63.8268324 88.1690734,63.984871 88.7357606,64.3268015 C89.3024479,64.668732 89.7402857,65.1424309 90.0234208,65.7474811 C90.3328263,66.3529483 90.487529,67.0372263 90.487529,67.8532726" id="Fill-46" fill="#7D868C"></path>
                    <path d="M91.6719846,68.7479212 L91.6719846,64.0372031 L92.9342085,64.0372031 L92.9342085,68.5636124 C92.9342085,69.2741606 93.0884942,69.8266703 93.3978996,70.2740988 C93.706888,70.6952571 94.1705792,70.9058363 94.788973,70.9058363 C95.4845097,70.9058363 96.0249266,70.6427166 96.4373282,70.1160602 C96.8493127,69.5902378 97.055305,68.9318131 97.055305,68.1424541 L97.055305,64.0372031 L98.3179459,64.0372031 L98.3179459,70.0372494 C98.3179459,70.5901761 98.3433822,71.168956 98.4209421,71.7477359 L97.2100077,71.7477359 C97.1583012,71.4320757 97.1328649,71.0113344 97.1070116,70.5113653 L97.0815753,70.5113653 C96.5403243,71.4583459 95.6646486,71.9583151 94.4795676,71.9583151 C93.5526023,71.9583151 92.8312124,71.6689251 92.3675212,71.0638749 C91.9042471,70.4584077 91.6719846,69.6949019 91.6719846,68.7479212" id="Fill-47" fill="#7D868C"></path>
                    <path d="M105.529927,68.4058656 L105.529927,65.9844139 C105.246375,65.5899429 104.911951,65.3264062 104.525402,65.1425143 C104.164707,64.9582054 103.726869,64.8527073 103.237325,64.8527073 C102.515935,64.8527073 101.923812,65.1425143 101.51141,65.6950239 C101.099425,66.2475336 100.893433,66.9847691 100.893433,67.8792093 C100.893433,68.8003367 101.099425,69.5375722 101.51141,70.0900819 C101.923812,70.6425915 102.464646,70.9057112 103.186036,70.9057112 C103.907008,70.9057112 104.473696,70.6688618 104.88568,70.1951629 C105.323935,69.7481514 105.529927,69.1426842 105.529927,68.4058656 M106.894731,71.7213405 L105.73592,71.7213405 C105.658777,71.274329 105.632924,70.9057112 105.632924,70.5637807 L105.607487,70.5637807 C105.040383,71.4582208 104.138854,71.9319197 102.902483,71.9319197 C101.846669,71.9319197 101.021866,71.5637189 100.455595,70.8006301 C99.8889081,70.0638116 99.605773,69.0901436 99.605773,67.8792093 C99.605773,67.1161205 99.7346224,66.4322595 100.017758,65.800522 C100.300893,65.1687846 100.712877,64.6950857 101.228275,64.3268849 C101.743673,63.9582672 102.361649,63.8002286 103.083039,63.8002286 C104.087564,63.8002286 104.911951,64.1421591 105.529927,64.8005838 L105.529927,61.0109931 L106.791734,61.0109931 L106.791734,70.011271 C106.791734,70.5637807 106.843441,71.1425606 106.894731,71.7213405" id="Fill-48" fill="#7D868C"></path>
                </g>
            </g>
        </g>
    </g>
</svg>