<svg width="241" height="74" xmlns="http://www.w3.org/2000/svg" xmlns:xlink="http://www.w3.org/1999/xlink">
  <defs>
    <path id="a" d="M.168.18h85.55V60.04H.167z"/>
    <path id="c" d="M0 .182h6.233v8.105H0z"/>
    <path id="e" d="M.365.208h7.598V8.34H.365z"/>
  </defs>
  <g fill="none" fill-rule="evenodd">
    <path d="M124.964 37.42c.205 1.08-.41 4.179-3.218 4.506-1.01.118-4.664.154-8.717.157.013 1.88.03 3.76.053 5.64.028 2.312-.727 5.714-3.503 6.24-1.08.206-4.178-.408-4.505-3.216-.118-1.007-.154-4.646-.157-8.687-3.118-.018-5.563-.04-6.008-.039-2.469.01-5.637-1.391-5.894-4.364-.23-2.668 2.272-3.772 5.013-3.73 2.304.036 4.608.05 6.912.057.018-3.15.04-5.627.039-6.075-.01-2.469.552-5.637 3.525-5.894 2.668-.231 4.61 2.272 4.569 5.013-.036 2.314-.05 4.629-.057 6.942 1.902-.012 3.805-.03 5.707-.052 2.312-.028 5.714.726 6.241 3.503z" fill="#5E63B6" fill-rule="nonzero"/>
    <g transform="translate(1 1)">
      <circle stroke="#3A438B" stroke-width="2" fill="#FFF" cx="36" cy="36" r="36"/>
      <path d="M53.487 33.22c0-.095.032-.223.064-.35.032-.16.096-.32.096-.48.351-1.915-.352-4.214-1.79-6.609a7.224 7.224 0 0 1-.417-.638c-.223-.351-.48-.734-.767-1.118a.44.44 0 0 1-.096-.127c-.064-.096-.16-.192-.224-.288-.064-.095-.16-.223-.224-.319s-.16-.191-.223-.287c-.096-.096-.16-.224-.256-.32-.064-.063-.128-.16-.192-.223-2.27-2.81-5.244-5.587-8.377-8.014.287 3.96.223 7.95-.256 11.079-.576 3.8-2.11 8.205-4.125 12.164-4.445-.51-8.921-1.692-12.438-3.32-2.91-1.373-6.235-3.48-9.401-5.939l.096.99c0 .096.032.192.032.288.032.223.032.478.064.702 0 .096.032.223.032.32.032.223.064.478.096.702 0 .095.032.191.032.287.032.287.064.607.128.894.064.447.096.766.16 1.117.063.384.095.67.16.958 0 .064.031.128.031.192.064.287.096.543.16.83 0 .064.032.096.032.16.064.319.128.638.192.925.224.99.48 1.948.767 2.874.48 1.564 1.024 3.001 1.663 4.246.096.192.192.352.288.543.096.192.16.351.256.51.096.192.192.352.287.512.16.255.288.447.416.638.064.096.064.128.096.128.16.192.32.415.48.607.128.127.224.255.351.383l.16.16c.064.063.16.127.224.223l.16.16c.064.063.128.127.224.191a.697.697 0 0 1 .16.128c.064.064.16.128.224.16.063.031.127.063.16.127.063.064.16.096.255.16.064.032.128.064.16.096.096.032.192.095.288.127.032.032.096.032.128.064.128.064.288.128.415.16.096.032.192.064.256.096 6.97 2.075 14.07-.607 22.447 5.81-.736-10.568 5.372-14.75 7.546-21.678z" fill="#9452BA"/>
    </g>
    <g transform="translate(145.676 1.236)">
      <mask id="b" fill="#fff">
        <use xlink:href="#a"/>
      </mask>
      <path d="M35.749 6.724c2.751-2.863 6.58-4.647 10.856-4.647 5.651 0 10.559 3.16 13.199 7.807a18.427 18.427 0 0 1 7.472-1.598c10.188 0 18.441 8.328 18.441 18.59 0 10.26-8.253 18.589-18.44 18.589-1.227 0-2.454-.112-3.644-.372-2.305 4.127-6.693 6.915-11.749 6.915-2.12 0-4.126-.483-5.91-1.338-2.343 5.502-7.809 9.369-14.166 9.369-6.618 0-12.27-4.201-14.426-10.076a15.12 15.12 0 0 1-2.937.298C6.563 50.26.168 43.79.168 35.835c0-5.354 2.863-10 7.139-12.492a16.165 16.165 0 0 1-1.376-6.58C5.931 7.615 13.367.18 22.551.18 27.94.218 32.7 2.746 35.748 6.724" fill="#00A1DF" mask="url(#b)"/>
    </g>
    <path d="M158.225 32.461c-.038.149.037.186.037.186.149.112.334.186.483.298.855.446 1.71.594 2.565.594 1.748 0 2.826-.93 2.826-2.416v-.037c0-1.376-1.227-1.896-2.38-2.268l-.148-.037c-.855-.298-1.636-.52-1.636-1.116v-.037c0-.483.446-.855 1.116-.855.743 0 1.635.26 2.23.558 0 0 .186.111.223-.038.037-.074.335-.892.372-.966.037-.075-.037-.149-.075-.186-.669-.409-1.56-.67-2.528-.67h-.185c-1.6 0-2.714.967-2.714 2.343v.074c0 1.45 1.226 1.933 2.379 2.268l.186.075c.855.26 1.561.483 1.561 1.078v.037c0 .558-.483.93-1.227.93-.297 0-1.227 0-2.268-.632-.111-.075-.185-.112-.297-.186-.037-.038-.186-.075-.223.074l-.297.93zM183.915 32.461c-.037.149.037.186.037.186.15.112.335.186.484.298.855.446 1.71.594 2.565.594 1.748 0 2.826-.93 2.826-2.416v-.037c0-1.376-1.227-1.896-2.38-2.268l-.148-.037c-.855-.298-1.636-.52-1.636-1.116v-.037c0-.483.446-.855 1.115-.855.743 0 1.636.26 2.23.558 0 0 .187.111.224-.038.037-.074.335-.892.372-.966.037-.075-.037-.149-.074-.186-.67-.409-1.562-.67-2.529-.67h-.185c-1.6 0-2.715.967-2.715 2.343v.074c0 1.45 1.227 1.933 2.38 2.268l.186.075c.854.26 1.561.483 1.561 1.078v.037c0 .558-.483.93-1.227.93-.297 0-1.227 0-2.268-.632-.111-.075-.185-.112-.297-.186-.037-.038-.186-.075-.223.074l-.298.93zM201.427 29.524c0 .855-.149 1.525-.483 2.008-.298.483-.781.706-1.414.706-.668 0-1.115-.223-1.412-.706-.297-.483-.447-1.153-.447-2.008s.15-1.524.447-1.97c.297-.446.78-.706 1.412-.706.633 0 1.116.223 1.414.706.334.446.483 1.115.483 1.97m1.487-1.561c-.149-.484-.372-.93-.67-1.264-.297-.372-.669-.632-1.115-.856-.446-.223-.966-.297-1.561-.297s-1.116.112-1.562.297c-.445.224-.818.484-1.115.856-.297.372-.52.78-.669 1.264a5.269 5.269 0 0 0-.224 1.561c0 .558.075 1.079.224 1.562.148.483.372.93.669 1.264.297.372.67.632 1.115.855a4.03 4.03 0 0 0 1.562.298c.595 0 1.115-.112 1.561-.298a2.81 2.81 0 0 0 1.116-.855c.297-.372.52-.78.669-1.264a5.28 5.28 0 0 0 .223-1.562 9.89 9.89 0 0 0-.223-1.561M214.923 31.978c-.037-.148-.186-.074-.186-.074a4.56 4.56 0 0 1-.67.186c-.26.037-.52.074-.818.074-.706 0-1.264-.223-1.672-.632-.41-.41-.632-1.078-.632-2.008 0-.818.185-1.45.557-1.933.372-.483.893-.706 1.636-.706.595 0 1.078.074 1.562.223 0 0 .111.037.186-.112.111-.372.223-.595.372-1.004.037-.112-.075-.148-.075-.186-.186-.074-.632-.186-.967-.26a9.33 9.33 0 0 0-1.115-.074c-.632 0-1.153.112-1.636.297a3.488 3.488 0 0 0-1.19.855c-.297.372-.557.781-.706 1.264a5.283 5.283 0 0 0-.223 1.562c0 1.227.335 2.194.967 2.9.632.706 1.635 1.078 2.9 1.078.743 0 1.524-.149 2.082-.372 0 0 .111-.037.074-.186l-.446-.892zM217.488 28.706c.074-.483.186-.855.409-1.152.297-.446.78-.707 1.413-.707.632 0 1.078.26 1.376.707.185.297.297.706.334 1.152h-3.532zm4.908-1.04c-.112-.484-.446-.93-.632-1.153-.335-.335-.633-.595-.93-.707a3.428 3.428 0 0 0-1.413-.297c-.632 0-1.19.112-1.635.335-.446.222-.856.52-1.153.855-.298.371-.52.78-.67 1.3a5.354 5.354 0 0 0-.222 1.6c0 .558.074 1.115.223 1.598.149.484.409.893.706 1.264.335.372.744.632 1.264.818.484.186 1.115.298 1.785.298 1.45 0 2.193-.335 2.49-.484.038-.037.113-.074.038-.223l-.335-.892c-.037-.148-.186-.074-.186-.074-.371.148-.855.372-2.044.372-.781 0-1.339-.224-1.71-.595-.372-.372-.558-.893-.558-1.636h4.945s.148 0 .148-.112a4.835 4.835 0 0 0-.11-2.268zM177.78 28.706c.075-.483.187-.855.41-1.152.297-.446.78-.707 1.413-.707.669 0 1.078.26 1.375.707.186.297.298.706.335 1.152h-3.532zm4.945-1.04c-.11-.484-.445-.93-.631-1.153-.335-.335-.632-.595-.93-.707a3.431 3.431 0 0 0-1.412-.297c-.633 0-1.19.112-1.637.335-.446.222-.855.52-1.152.855-.298.371-.52.78-.67 1.3a5.354 5.354 0 0 0-.223 1.6c0 .558.075 1.115.224 1.598.148.484.408.893.706 1.264.335.372.744.632 1.264.818.483.186 1.116.298 1.784.298 1.45 0 2.194-.335 2.492-.484.037-.037.111-.074.037-.223l-.335-.892c-.037-.148-.186-.074-.186-.074-.371.148-.855.372-2.044.372-.781 0-1.339-.224-1.71-.595-.373-.372-.558-.893-.558-1.636h4.944s.15 0 .15-.112a5.44 5.44 0 0 0-.113-2.268zM167.073 31.978c-.186-.148-.223-.186-.297-.297-.112-.15-.15-.372-.15-.632 0-.447.15-.744.447-.967 0 0 .41-.372 1.45-.372.706 0 1.339.112 1.339.112v2.268s-.633.148-1.339.185c-1.004.038-1.45-.297-1.45-.297m1.97-3.495c-.185 0-.445-.037-.78-.037-.409 0-.818.037-1.227.149-.372.111-.743.26-1.04.483-.299.223-.559.484-.707.818-.187.335-.26.706-.26 1.153 0 .446.073.817.222 1.115.15.297.372.558.632.78.26.187.633.335 1.004.447.372.074.818.149 1.302.149a9.67 9.67 0 0 0 1.487-.112c.483-.074 1.078-.186 1.264-.26.148-.037.334-.074.334-.074.112-.038.112-.15.112-.15V28.41c0-1.004-.26-1.748-.78-2.194-.521-.446-1.302-.669-2.269-.669-.372 0-.967.038-1.338.112 0 0-1.078.222-1.525.557 0 0-.111.075-.037.186l.335.93c.037.111.149.074.149.074s.037 0 .074-.037c.967-.52 2.156-.52 2.156-.52.52 0 .93.11 1.227.334.26.223.41.52.41 1.19v.223c-.335-.075-.744-.112-.744-.112M209.011 25.918c.037-.112-.037-.149-.074-.186-.074-.037-.52-.111-.818-.149-.632-.037-.967.075-1.264.223-.298.149-.632.372-.855.632v-.594c0-.075-.075-.15-.149-.15h-1.264a.16.16 0 0 0-.149.15v7.398c0 .075.075.149.149.149h1.301a.16.16 0 0 0 .149-.149v-3.68c0-.484.037-1.004.149-1.302.111-.297.26-.557.446-.743.185-.186.372-.298.595-.372.223-.075.483-.112.669-.112.26 0 .558.075.558.075.111 0 .149-.038.185-.149.112-.223.335-.893.372-1.041" fill="#FFF"/>
    <path d="M196.816 22.498c-.148-.038-.297-.075-.483-.112-.186-.037-.41-.037-.67-.037-.891 0-1.598.26-2.081.743-.484.483-.818 1.264-1.004 2.231l-.074.335h-1.116s-.149 0-.149.148l-.185 1.042c0 .11.037.148.148.148h1.079l-1.116 6.209a7.403 7.403 0 0 1-.297 1.227c-.112.297-.224.52-.334.706-.112.149-.261.298-.447.335-.186.074-.372.074-.595.074-.111 0-.297-.037-.409-.037-.111-.037-.186-.037-.26-.074 0 0-.112-.037-.186.074-.037.112-.334.892-.372 1.004-.037.111 0 .186.075.186.148.037.26.074.446.149.26.074.52.074.743.074.447 0 .855-.074 1.227-.186.335-.112.632-.335.93-.632.297-.334.483-.67.632-1.115.186-.447.335-1.004.446-1.673l1.115-6.321h1.636s.149 0 .149-.148l.186-1.042c0-.111-.037-.148-.15-.148h-1.598c0-.038.075-.595.26-1.116.075-.223.223-.409.335-.52.112-.112.26-.223.41-.26.148-.038.334-.075.52-.075.148 0 .297 0 .409.037.148.037.223.037.26.075.148.037.186 0 .223-.075l.372-1.04c.037-.112-.075-.186-.075-.186M174.658 33.205a.16.16 0 0 1-.149.148h-1.301c-.074 0-.149-.074-.149-.148V22.646c0-.074.075-.148.149-.148h1.301a.16.16 0 0 1 .149.148v10.559z" fill="#FFF"/>
    <g transform="translate(134 64.619)">
      <mask id="d" fill="#fff">
        <use xlink:href="#c"/>
      </mask>
      <path d="M3.71.182c.463 0 .927.078 1.364.21.438.158.824.342 1.16.606l-.516.894a3.294 3.294 0 0 0-2.009-.658c-.798 0-1.416.263-1.829.816-.412.553-.618 1.264-.618 2.185 0 .894.206 1.605.618 2.158.413.552 1.03.815 1.83.815.669 0 1.364-.21 2.034-.658l.464.895a4.211 4.211 0 0 1-2.576.842c-.85 0-1.546-.184-2.087-.579a3.514 3.514 0 0 1-1.184-1.5A5.474 5.474 0 0 1 0 4.235c0-1.238.335-2.211 1.005-2.948C1.648.55 2.55.182 3.709.182" fill="#7D868C" mask="url(#d)"/>
    </g>
    <g transform="translate(140.255 64.619)">
      <mask id="f" fill="#fff">
        <use xlink:href="#e"/>
      </mask>
      <path d="M1.704 4.235c0 .92.206 1.658.618 2.21.413.553 1.031.842 1.855.842.85 0 1.468-.29 1.88-.842.413-.552.619-1.29.619-2.21 0-.922-.206-1.659-.619-2.185-.412-.553-1.03-.816-1.88-.816-.85 0-1.468.263-1.855.816-.412.526-.618 1.263-.618 2.185m6.26 0c0 .789-.155 1.5-.464 2.13a3.377 3.377 0 0 1-1.314 1.449c-.567.342-1.236.526-2.035.526-.772 0-1.468-.184-2.035-.526C1.55 7.47 1.112 6.97.803 6.366.493 5.76.365 5.05.365 4.26c0-1.236.335-2.21 1.004-2.947C2.04.577 2.967.208 4.151.208c.799 0 1.494.158 2.061.5A3.24 3.24 0 0 1 7.5 2.128c.335.606.463 1.29.463 2.107" fill="#7D868C" mask="url(#f)"/>
    </g>
    <path d="M149.66 66.748c0-.553-.025-1.132-.102-1.737h1.21c.052.263.077.632.103 1.079h.026c.232-.395.567-.684 1.005-.948a3.076 3.076 0 0 1 1.494-.368c.644 0 1.159.132 1.571.421.412.29.696.658.876 1.131h.025a2.946 2.946 0 0 1 1.056-1.13c.439-.29.98-.422 1.597-.422.619 0 1.134.132 1.546.421.412.29.721.632.927 1.079.206.448.31.948.31 1.474v4.92h-1.263v-4.683c0-.606-.129-1.106-.412-1.5-.283-.395-.721-.606-1.365-.606-.464 0-.85.132-1.16.369-.334.236-.566.553-.746.974a3.11 3.11 0 0 0-.258 1.289v4.21h-1.262v-4.789c0-.579-.155-1.079-.438-1.473-.283-.396-.747-.606-1.34-.606-.643 0-1.158.237-1.545.71-.386.474-.567 1.053-.567 1.737v4.421h-1.261v-5.973h-.026zM163.106 66.748c0-.553-.025-1.132-.103-1.737h1.21c.053.263.078.632.104 1.079h.026c.232-.395.566-.684 1.004-.948a3.076 3.076 0 0 1 1.494-.368c.644 0 1.16.132 1.572.421.412.29.695.658.875 1.131h.026a2.946 2.946 0 0 1 1.056-1.13c.438-.29.979-.422 1.597-.422s1.133.132 1.546.421c.412.29.72.632.927 1.079.206.448.283.948.283 1.474v4.92h-1.262v-4.683c0-.606-.129-1.106-.412-1.5-.283-.395-.721-.606-1.365-.606-.464 0-.85.132-1.16.369-.334.236-.566.553-.746.974a3.11 3.11 0 0 0-.258 1.289v4.21h-1.262v-4.789c0-.579-.155-1.079-.438-1.473-.283-.396-.747-.606-1.34-.606-.644 0-1.159.237-1.545.71-.386.474-.567 1.053-.567 1.737v4.421h-1.262v-5.973zM181.807 68.327c-.026-.763-.206-1.395-.567-1.843-.36-.473-.902-.684-1.597-.684s-1.237.237-1.623.711c-.386.473-.592 1.079-.618 1.816h4.405zm1.21 1h-5.59c.052.79.284 1.421.696 1.868.412.474 1.005.684 1.778.684.463 0 .85-.052 1.21-.184.36-.131.721-.315 1.082-.579l.567.842a4.529 4.529 0 0 1-1.365.71 5.094 5.094 0 0 1-1.597.238c-1.16 0-2.061-.369-2.705-1.132-.644-.737-.979-1.736-.979-2.974 0-.789.129-1.5.412-2.105.284-.605.67-1.079 1.21-1.421.516-.342 1.16-.5 1.907-.5 1.107 0 1.932.368 2.498 1.079.567.737.876 1.684.876 2.895.026.29.026.474 0 .579zM184.485 66.748c0-.553-.025-1.132-.103-1.737h1.21c.053.342.078.763.104 1.237h.026c.438-.948 1.236-1.448 2.37-1.448.077 0 .231.027.437.053l-.103 1.105c-.103-.026-.257-.026-.463-.026-.722 0-1.263.237-1.649.737-.386.5-.566 1.131-.566 1.92v4.132h-1.263v-5.973zM192.522 64.8c.464 0 .927.079 1.365.21.438.159.824.343 1.16.606l-.516.895a3.293 3.293 0 0 0-2.01-.658c-.798 0-1.416.263-1.828.816-.412.553-.618 1.263-.618 2.184 0 .895.206 1.605.618 2.158.412.553 1.03.816 1.829.816.67 0 1.365-.21 2.035-.658l.463.895a4.211 4.211 0 0 1-2.576.842c-.85 0-1.545-.185-2.086-.58a3.515 3.515 0 0 1-1.185-1.5 5.474 5.474 0 0 1-.36-1.973c0-1.237.335-2.21 1.004-2.948.644-.736 1.546-1.105 2.705-1.105M201.15 68.327c-.025-.763-.205-1.395-.566-1.843-.36-.473-.901-.684-1.597-.684-.695 0-1.236.237-1.623.711-.386.473-.592 1.079-.618 1.816h4.405zm1.211 1h-5.59c.052.79.284 1.421.696 1.868.412.474 1.005.684 1.778.684.463 0 .85-.052 1.21-.184.36-.131.722-.315 1.082-.579l.567.842a4.517 4.517 0 0 1-1.365.71 5.094 5.094 0 0 1-1.597.238c-1.16 0-2.061-.369-2.705-1.132-.644-.737-.979-1.736-.979-2.974 0-.789.129-1.5.412-2.105.284-.605.67-1.079 1.21-1.421.516-.342 1.16-.5 1.907-.5 1.108 0 1.932.368 2.499 1.079.566.737.875 1.684.875 2.895.026.29.026.474 0 .579zM210.217 64.8c.464 0 .928.079 1.366.21.437.159.824.343 1.159.606l-.516.895a3.293 3.293 0 0 0-2.009-.658c-.798 0-1.416.263-1.829.816-.412.553-.618 1.263-.618 2.184 0 .895.206 1.605.618 2.158.413.553 1.03.816 1.83.816.669 0 1.365-.21 2.034-.658l.464.895a4.211 4.211 0 0 1-2.576.842c-.85 0-1.546-.185-2.086-.58a3.518 3.518 0 0 1-1.185-1.5 5.474 5.474 0 0 1-.36-1.973c0-1.237.334-2.21 1.004-2.948.618-.736 1.546-1.105 2.704-1.105M214.184 72.722h1.236V62.01h-1.236zM218.228 68.853c0 .921.206 1.658.618 2.21.412.553 1.03.843 1.855.843.85 0 1.468-.29 1.88-.842.412-.553.618-1.29.618-2.21 0-.922-.206-1.66-.618-2.185-.412-.553-1.03-.816-1.88-.816-.85 0-1.468.263-1.855.816-.437.526-.618 1.263-.618 2.184m6.26 0c0 .79-.155 1.5-.465 2.132a3.377 3.377 0 0 1-1.313 1.447c-.566.342-1.236.527-2.035.527-.772 0-1.468-.185-2.035-.527-.566-.342-1.004-.842-1.313-1.447-.284-.606-.438-1.316-.438-2.106 0-1.236.335-2.21 1.004-2.947.67-.737 1.597-1.105 2.782-1.105.799 0 1.494.158 2.06.5a3.24 3.24 0 0 1 1.288 1.42c.31.606.465 1.29.465 2.106M225.672 69.748v-4.71h1.262v4.526c0 .71.154 1.263.464 1.71.309.421.773.632 1.391.632.696 0 1.236-.263 1.648-.79.412-.526.618-1.184.618-1.974v-4.105h1.263v6c0 .553.025 1.132.103 1.71h-1.211c-.052-.315-.077-.736-.103-1.236h-.025c-.542.947-1.417 1.447-2.602 1.447-.927 0-1.649-.29-2.112-.894-.464-.606-.696-1.37-.696-2.316M239.53 69.406v-2.422a2.557 2.557 0 0 0-1.005-.841 2.825 2.825 0 0 0-1.288-.29c-.721 0-1.313.29-1.726.842-.412.553-.618 1.29-.618 2.184 0 .921.206 1.659.618 2.211.413.553.954.816 1.675.816.721 0 1.288-.237 1.7-.71.438-.448.644-1.053.644-1.79m1.365 3.315h-1.16a6.645 6.645 0 0 1-.102-1.157h-.026c-.567.894-1.468 1.368-2.705 1.368-1.055 0-1.88-.368-2.446-1.131-.567-.737-.85-1.71-.85-2.922 0-.763.129-1.447.412-2.078a3.56 3.56 0 0 1 1.21-1.474c.516-.369 1.134-.527 1.855-.527 1.005 0 1.829.342 2.447 1v-3.789h1.262v9c0 .553.051 1.132.103 1.71" fill="#7D868C"/>
  </g>
</svg>
