<?xml version="1.0" encoding="utf-8"?>
<!-- Generator: Adobe Illustrator 23.0.2, SVG Export Plug-In . SVG Version: 6.00 Build 0)  -->
<svg version="1.1" id="Calque_1" xmlns="http://www.w3.org/2000/svg" xmlns:xlink="http://www.w3.org/1999/xlink" x="0px" y="0px"
	 viewBox="0 0 357.4 258.4" style="enable-background:new 0 0 357.4 258.4;" xml:space="preserve">
<style type="text/css">
	.st0{fill:#E1F2FF;}
	.st1{fill:#9ACDED;}
	.st2{fill:#FFFFFF;}
	.st3{clip-path:url(#SVGID_2_);}
	.st4{fill:#9452BA;}
	.st5{fill:#52267D;}
	.st6{fill:#F3E3FF;}
	.st7{opacity:0.3;fill:#F3E3FF;enable-background:new    ;}
	.st8{opacity:0.3;}
	.st9{fill:#ACD3EF;}
	.st10{fill:#5E63B6;}
	.st11{fill:#00A1DF;}
	.st12{fill:#7D868C;}
</style>
<g>
	<path class="st0" d="M40.3,244c0-76.8,62.3-139.1,139.1-139.1S318.5,167.2,318.5,244H40.3z"/>
	<g>
		<path class="st1" d="M230.7,245.2c0-0.7-0.6-1.3-1.3-1.3h-43.2c-0.7,0-1.3,0.6-1.3,1.3s0.6,1.3,1.3,1.3h43.2
			C230.1,246.5,230.7,245.9,230.7,245.2z"/>
		<path class="st1" d="M283.2,255.8h-74.8c-0.7,0-1.3,0.6-1.3,1.3s0.6,1.3,1.3,1.3h74.8c0.7,0,1.3-0.6,1.3-1.3
			S283.9,255.8,283.2,255.8z"/>
		<path class="st1" d="M307.3,255.8h-15.2c-0.7,0-1.3,0.6-1.3,1.3s0.6,1.3,1.3,1.3h15.2c0.7,0,1.3-0.6,1.3-1.3
			S308.1,255.8,307.3,255.8z"/>
		<path class="st1" d="M201.7,255.8h-5.8c-0.7,0-1.3,0.6-1.3,1.3s0.6,1.3,1.3,1.3h5.8c0.7,0,1.3-0.6,1.3-1.3
			S202.4,255.8,201.7,255.8z"/>
	</g>
	<path class="st1" d="M356.1,243.3h-4.9c-0.7,0-1.3,0.6-1.3,1.3s0.6,1.3,1.3,1.3h4.9c0.7,0,1.3-0.6,1.3-1.3S356.9,243.3,356.1,243.3
		z"/>
	<g>
		<path class="st1" d="M150.1,255.8h-30c-0.7,0-1.3,0.6-1.3,1.3s0.6,1.3,1.3,1.3h30c0.7,0,1.3-0.6,1.3-1.3S150.8,255.8,150.1,255.8z
			"/>
		<path class="st1" d="M110.1,255.8h-4.9c-0.7,0-1.3,0.6-1.3,1.3s0.6,1.3,1.3,1.3h4.9c0.7,0,1.3-0.6,1.3-1.3
			S110.9,255.8,110.1,255.8z"/>
		<path class="st1" d="M69.7,255.8H48.9c-0.7,0-1.3,0.6-1.3,1.3s0.6,1.3,1.3,1.3h20.9c0.7,0,1.3-0.6,1.3-1.3S70.5,255.8,69.7,255.8z
			"/>
	</g>
	<g>
		<g>
			<path class="st2" d="M139.9,245.2h-14.6c-0.5-9.8-8.1-17.6-17.7-18.7c-3.1-15.1-16.4-26.4-32.4-26.4c-10.9,0-20.5,5.2-26.5,13.3
				c-2.1-0.5-4.3-0.8-6.6-0.8c-14.8,0-26.8,12-26.8,26.8c0,2,0.2,3.9,0.6,5.7H1.3"/>
			<path class="st1" d="M124.1,246.6l-0.1-1.3c-0.5-9.1-7.4-16.4-16.5-17.5l-1-0.1l-0.2-1c-3-14.7-16.1-25.3-31.1-25.3
				c-10.1,0-19.4,4.7-25.5,12.8l-0.5,0.7l-0.9-0.2c-2-0.5-4.1-0.8-6.2-0.8c-14.1,0-25.5,11.4-25.5,25.5c0,1.8,0.2,3.7,0.6,5.5
				l0.4,1.6H1.3c-0.7,0-1.3-0.6-1.3-1.3s0.6-1.3,1.3-1.3h13c-0.2-1.5-0.3-2.9-0.3-4.4c0-15.5,12.6-28.2,28.2-28.2c2,0,4,0.2,6,0.6
				c6.6-8.4,16.4-13.2,27.1-13.2c15.9,0,29.9,11.1,33.5,26.5c9.5,1.5,16.7,9.1,17.8,18.6H140l0,0c0.7,0,1.3,0.6,1.3,1.3
				c0,0.7-0.6,1.3-1.3,1.3L124.1,246.6z"/>
		</g>
		<path class="st0" d="M39.9,228.4c0,0-2.3,0.5-2.3-0.4c0-12.3,35.1-15.1,38.3-2.2c1.1,4.3-23.4,5.4-25-0.1L39.9,228.4"/>
		<g>
			<g>
				<g>
					<defs>
						<path id="SVGID_1_" d="M17.8,166.4c0,0-21.3,14.2-13,30.8s22.7,22.2,27,22.3s2.3,9.2,7.8,9.1s10.1-1.3,11-2.7
							c2.6,2,6.3,5,11.7,4.2s17.2-4.3,17.1-7.5c0-3.2,11-18.6,11-18.6l3.3-12.8l-8.5-26.5l-55.3-4.2L17.8,166.4z"/>
					</defs>
					<clipPath id="SVGID_2_">
						<use xlink:href="#SVGID_1_"  style="overflow:visible;"/>
					</clipPath>
					<g class="st3">
						<g>
							<path class="st4" d="M66.8,283.2h5.1c1.7,0,3.3-1.1,3.9-2.7c1.8-4.6,1.3-8.9,1.6-12.5c0.4-6.7-0.7-10.2-1.7-15.8l-7.6,0.2
								c0,0,0.6,2.8,1.1,11.2c0.1,2.6-4.2,13-4,18.1C65.3,282.5,66,283.2,66.8,283.2z"/>
							<path class="st5" d="M71.9,284.2h-5.1c-1.4,0-2.5-1.1-2.6-2.5c-0.1-3.1,1.3-7.8,2.5-12c0.7-2.5,1.5-5.2,1.5-6.1
								c-0.4-8.1-1-11-1.1-11l-0.3-1.2l9.7-0.2l0.2,0.9c0.2,1,0.4,2,0.5,2.9c0.8,4,1.5,7.5,1.1,13.1c0,0.8-0.1,1.7-0.1,2.6
								c0,3.1-0.1,6.5-1.6,10.2C76,282.9,74,284.2,71.9,284.2z M69.4,253.4c0.2,1.5,0.6,4.7,0.9,10.1c0.1,1.2-0.5,3.4-1.6,6.8
								c-1.1,3.8-2.5,8.6-2.4,11.4c0,0.3,0.3,0.5,0.5,0.5h5.1c1.3,0,2.5-0.8,3-2c1.3-3.4,1.4-6.5,1.4-9.5c0-0.9,0-1.8,0.1-2.7
								c0.3-5.4-0.3-8.6-1.1-12.6c-0.1-0.7-0.3-1.4-0.4-2.1L69.4,253.4z"/>
						</g>
						<g>
							<path class="st4" d="M52.1,259.2l-6.1-6.9l-3.8,0.1c0,0-0.5,5.8-0.7,8.2c-0.4,4.2-2.1,12.6-3.2,16.2
								c-0.4,1.2-0.6,2.3-0.6,3.3c-0.1,1.7,1.3,3.1,3,3.1h4.5c2.6,0,4.9-1.7,5.6-4.3C52.7,271.1,52.1,259.2,52.1,259.2z"/>
							<path class="st5" d="M45.2,284.2h-4.5c-1.1,0-2.2-0.5-3-1.3c-0.7-0.8-1.1-1.8-1.1-2.9c0.1-1.1,0.3-2.3,0.7-3.5
								c1.1-3.7,2.8-12,3.2-16c0.2-2.4,0.7-8.2,0.7-8.2l0.1-0.9l5.1-0.2l6.7,7.5v0.4c0,0.5,0.6,12.1-1.4,20.1
								C51,282.1,48.3,284.2,45.2,284.2z M43.2,253.4c-0.2,1.7-0.5,5.5-0.7,7.3c-0.4,4.2-2.1,12.5-3.3,16.4
								c-0.3,1.1-0.5,2.1-0.6,3.1c0,0.5,0.2,1,0.5,1.4c0.4,0.4,0.9,0.6,1.5,0.6h4.5c2.2,0,4.1-1.4,4.6-3.5
								c1.7-6.9,1.5-17.1,1.4-19.1l-5.5-6.3L43.2,253.4z"/>
						</g>
						<path class="st5" d="M43.4,266l-1.3-1.2l1.2-1.1l0.3,0.4l-0.4,0.4l1.6-0.4l0.5,1.1L43.4,266z M43.3,265.2l0.2,0.2l1.2-0.4
							l-0.1-0.3l-0.8,0.2v0.3L43.3,265.2z M42.9,264.8l0.3,0.3v-0.5L42.9,264.8z"/>
						<g>
							<path class="st4" d="M43.6,233.4c4.4-0.1,8.6-3.2,17.7-3.6c0.1-0.6,0.3-1.1,0.5-1.6c1.6-3.6,4-13.8,2.5-20.5l-1.2-5.3
								c-0.4-1.7-0.6-3.5-0.6-5.3l0,0l0,0c0-0.7,0.1-1.5,0.2-2.2c0-0.2,0.1-0.3,0.1-0.5c0.1-0.5,0.3-1,0.5-1.5
								c0.1-0.2,0.1-0.3,0.2-0.5c0.2-0.3,0.3-0.6,0.5-0.9c0.2-0.3,0.4-0.6,0.6-0.9c0.6-0.8,1.4-1.6,2.2-2.2c0.3-0.2,0.6-0.4,0.9-0.6
								c1.6-1,3.5-1.6,5.6-1.6h1.8c3,0,5.7,1.2,7.6,3.2c0.2,0.2,0.5,0.5,0.7,0.8c0.4,0.5,0.8,1,1.1,1.6c0.1,0.2,0.2,0.4,0.3,0.6
								c0.1,0.2,0.1,0.3,0.2,0.5c0.2,0.5,0.4,1,0.5,1.5s0.2,1,0.3,1.6c0,0.4,0.1,0.7,0.1,1.1l0,0l0,0c0,0.7-0.3,1.4-0.8,1.9
								s-1.2,0.8-1.9,0.8H72.1l1.7,9.6c2,9.9,1.4,16.4-0.1,20.8c-0.3,1-2.3,4.5-2.3,4.5c5.5,8.7,14,12.5,23.1,13.6
								c7.7,0.9,24.3-6.1,15.8-14.2c-8.6-8.1,1.8-3.1,3.3-2c1.5,1,10.3,8.7,0.8,19.8c-4,4.7-8.6,9-19.7,12.3
								c-1.8,0.5-11.4,1.2-16.6,2.7c-15.5,4.4-28.1-0.4-35.1-10.6C35.8,246.2,41.8,233.4,43.6,233.4z"/>
							<path class="st5" d="M66.9,269.6c-10.3,0-19.2-4.4-24.9-12.7c-5.6-8.1-3.4-17.5-1.2-21.8c1.4-2.7,2.4-2.7,2.7-2.7l0,0
								c1.7,0,3.4-0.6,5.6-1.2c2.8-0.9,6.3-2,11.3-2.3c0.1-0.4,0.2-0.7,0.4-1c1.6-3.4,3.8-13.5,2.4-19.9l-1.2-5.3
								c-0.4-1.8-0.6-3.7-0.6-5.5c0-0.8,0.1-1.6,0.2-2.4c0-0.2,0.1-0.4,0.1-0.6c0.1-0.6,0.3-1.1,0.6-1.6c0.1-0.2,0.2-0.4,0.2-0.5
								c0.2-0.3,0.3-0.7,0.5-1s0.4-0.6,0.6-0.9c0.7-0.9,1.5-1.7,2.4-2.4c0.3-0.2,0.6-0.4,0.9-0.6c1.8-1.1,4-1.7,6.1-1.7h1.8
								c3.2,0,6.1,1.2,8.4,3.5c0.3,0.3,0.5,0.5,0.8,0.8c0.4,0.5,0.8,1.1,1.2,1.7c0.1,0.2,0.3,0.5,0.4,0.7s0.2,0.3,0.2,0.5
								c0.2,0.5,0.4,1.1,0.6,1.6c0.1,0.6,0.3,1.2,0.3,1.7c0,0.4,0.1,0.8,0.1,1.2c0,1-0.4,1.9-1.1,2.6c-0.7,0.7-1.6,1.1-2.6,1.1h-9.8
								l1.5,8.4c1.7,8.8,1.7,15.9-0.2,21.3c-0.3,0.8-1.5,3-2,4.1c4.8,7.2,12.2,11.5,22,12.7c5.3,0.7,14.6-2.7,16.6-7
								c0.9-1.8,0.3-3.6-1.7-5.5c-3.4-3.2-4.2-4.7-3.4-5.7c1.5-1.9,7.9,2.1,8,2.1c1.6,1.1,4.9,4.4,5.5,9c0.5,4-1,8.2-4.5,12.4
								c-3.9,4.5-8.6,9.2-20.1,12.6c-0.7,0.2-2.5,0.4-4.9,0.7c-3.6,0.5-8.6,1.1-11.8,2C74.3,269,70.5,269.6,66.9,269.6z M43.7,234.4
								c-0.5,0.4-1.8,2.5-2.6,6c-0.7,3.3-1.4,9.6,2.6,15.4c7.3,10.6,19.7,14.3,34,10.2c3.3-1,8.4-1.6,12.1-2c2-0.3,3.9-0.5,4.5-0.7
								c11-3.3,15.4-7.6,19.2-12c3.2-3.7,4.5-7.3,4.1-10.8c-0.5-4-3.5-6.8-4.6-7.6c-0.8-0.5-3.1-1.6-4.5-2.1
								c0.4,0.5,1.2,1.4,2.5,2.6c3.3,3.2,3,6,2.1,7.8c-2.6,5.4-13.2,8.8-18.7,8.1c-10.7-1.3-18.7-6.1-23.8-14.1l-0.3-0.5l0.3-0.5
								c0.7-1.3,2-3.6,2.2-4.3c1.8-5.1,1.8-11.9,0.1-20.3L71,198.8h12.3c0.4,0,0.9-0.2,1.2-0.5s0.5-0.7,0.5-1.2c0-0.3,0-0.7-0.1-1
								c0-0.5-0.1-1-0.3-1.4c-0.1-0.5-0.3-0.9-0.5-1.4c-0.1-0.1-0.1-0.3-0.2-0.4c-0.1-0.2-0.2-0.4-0.3-0.6c-0.3-0.5-0.6-1-1-1.4
								c-0.2-0.2-0.4-0.5-0.6-0.7c-1.8-1.8-4.3-2.9-6.9-2.9h-1.8c-1.8,0-3.5,0.5-5.1,1.4c-0.3,0.2-0.5,0.3-0.8,0.5
								c-0.8,0.6-1.4,1.2-2,2c-0.2,0.3-0.4,0.5-0.5,0.8c-0.2,0.3-0.3,0.5-0.5,0.8c-0.1,0.1-0.1,0.3-0.2,0.4
								c-0.2,0.4-0.3,0.9-0.5,1.4c0,0.2-0.1,0.3-0.1,0.5c-0.1,0.6-0.2,1.3-0.2,2c0,1.7,0.2,3.4,0.6,5.1l1.2,5.3
								c1.5,7-0.8,17.5-2.5,21.2c-0.2,0.3-0.3,0.8-0.4,1.4l-0.2,0.8h-0.8c-5.1,0.2-8.7,1.3-11.5,2.2
								C47.6,233.8,45.7,234.3,43.7,234.4z"/>
						</g>
						<g>
							<path class="st4" d="M53.2,218.7c0.4-11.4-8.7-20.4-19-22.3c-2.1-0.4-2.8-1.1-5.2-1.1h-1.8c-6,0-10.9,4.9-10.9,10.9
								c0,1.5,1.2,2.7,2.7,2.7c0,0,18.4,0,18.5,0H39h-1.5c4.1,1.7,6.6,6.9,7,9.7c0.6,4,0.2,7.3-1.2,9.9c-0.9,1.8-1,3.9-0.9,5.6
								c0,0,0,0,0.1,0c0.1,0.9,0.2,2,0.5,3.2c1.7-1.2,4.4-3,4.9-3.3c1.1-0.6,3.5-1.8,4.5-2.5C59.3,227.8,53,225.2,53.2,218.7z"/>
							<path class="st5" d="M42.4,239.1l-0.3-1.5c-0.2-0.9-0.4-1.8-0.5-2.7h-0.1l-0.1-0.7c-0.2-2.4,0.1-4.5,1-6.2
								c1.3-2.5,1.7-5.7,1.1-9.3c-0.4-2.3-2.6-7.2-6.3-8.9c-0.8,0-4.1,0-18.2,0c-2.1,0-3.7-1.7-3.7-3.7c0-6.6,5.4-12,12-12h1.8
								c1.6,0,2.5,0.3,3.5,0.6c0.5,0.2,1.1,0.3,1.9,0.5c9.9,1.8,20.2,10.6,19.9,23.3l0,0c-0.1,2.2,0.7,4,1.4,5.5
								c1.2,2.7,2.5,5.4-2.6,8.4c-1.2,0.7-4,2.2-4.6,2.5c-0.4,0.2-2.9,1.9-4.8,3.2L42.4,239.1z M43.4,233.5L43.4,233.5l0.1,0.7
								c0,0.5,0.1,1,0.2,1.5c1.5-1,3.3-2.2,3.7-2.5c1.5-0.8,3.6-1.9,4.5-2.4c3.5-2,3-3.1,1.8-5.8c-0.7-1.7-1.7-3.7-1.6-6.4l0,0
								C52.5,207,43,199,33.9,197.3c-0.9-0.2-1.5-0.4-2.1-0.5c-0.9-0.3-1.6-0.5-2.9-0.5h-1.8c-5.5,0-9.9,4.5-9.9,9.9
								c0,0.9,0.8,1.7,1.7,1.7c6.2,0,18.1,0,18.5,0h4.4l-1.8,1.4c3.1,2.4,5,6.6,5.4,9.2c0.6,4.1,0.2,7.6-1.3,10.5
								C43.5,230.5,43.4,232.2,43.4,233.5z"/>
						</g>
						<g>
							<path class="st6" d="M47.3,231.9c-0.1-1.8-0.4-2.7-0.2-3.4c1.1-4.1,1.5-5.4,1.5-9.8c0-4.3-2.5-8.6-6.2-10.9
								c-0.2-0.1-2.9-0.3-5,1.2c4.1,1.7,6.6,6.9,7,9.7c0.6,4,0.2,7.3-1.2,9.9c-0.9,1.8-1,3.9-0.9,5.6
								C42.4,234.2,47.4,236.1,47.3,231.9"/>
							<path class="st5" d="M44.7,235.2c-1.2,0-2.4-0.4-2.4-0.4l-0.3-0.1v-0.3c-0.1-1.6-0.1-3.9,0.9-5.9c1.4-2.6,1.7-5.9,1.1-9.6
								c-0.5-2.9-3.1-7.8-6.7-9.3l-0.8-0.3l0.7-0.5c2.2-1.6,5.1-1.5,5.5-1.2c3.9,2.4,6.5,6.9,6.5,11.4c0,4.4-0.4,5.8-1.5,9.8v0.1
								c-0.1,0.4,0,0.8,0,1.5c0.1,0.5,0.1,1,0.1,1.7l0,0c0,1.2-0.3,2.2-1.1,2.7C46.1,235,45.4,235.2,44.7,235.2z M42.9,233.9
								c0.8,0.2,2.4,0.5,3.2-0.1c0.5-0.3,0.7-1,0.7-1.9c0-0.7-0.1-1.2-0.1-1.6c-0.1-0.8-0.1-1.4,0-1.9v-0.1c1.1-4.1,1.5-5.3,1.5-9.6
								c0-4.1-2.4-8.3-6-10.5c-0.2,0-2-0.1-3.7,0.7c3.7,2.1,6,6.9,6.5,9.7c0.6,3.9,0.2,7.4-1.2,10.2
								C42.9,230.5,42.8,232.4,42.9,233.9z"/>
						</g>
						<g>
							<path class="st2" d="M21.4,197.2c0,0,0-1.9,1.9-2.7c0.6-0.2,1.6-0.7,1.6-0.7s1.1,2.4-0.2,3C23,197.7,21.4,197.2,21.4,197.2z"
								/>
							<path class="st5" d="M22.6,197.9c-0.8,0-1.3-0.2-1.4-0.2l-0.3-0.1v-0.4c0-0.1,0-2.3,2.2-3.1c0.6-0.2,1.6-0.7,1.6-0.7l0.4-0.2
								l0.3,0.5c0.1,0.2,0.8,1.7,0.4,2.8c-0.1,0.4-0.4,0.7-0.8,0.9C24.1,197.7,23.3,197.9,22.6,197.9z M22,196.8
								c0.5,0.1,1.5,0.1,2.6-0.4c0.5-0.2,0.3-1.2,0.1-1.9c-0.4,0.1-0.8,0.3-1.2,0.5C22.5,195.4,22.1,196.3,22,196.8z"/>
						</g>
						<g>
							<path class="st2" d="M26.2,195.9c0,0,0.1-2.6,3-3c0.5-0.1,2,0,2,0s0.7,2.8-0.9,3C28.4,196.2,26.2,195.9,26.2,195.9z"/>
							<path class="st5" d="M28.4,196.5c-1.2,0-2.2-0.1-2.2-0.2l-0.4-0.1v-0.4c0-1.1,0.8-3.1,3.4-3.5c0.6-0.1,1.9,0,2,0h0.4l0.1,0.4
								c0,0.2,0.4,1.9-0.2,2.9c-0.2,0.4-0.6,0.6-1.1,0.7C29.7,196.5,29,196.5,28.4,196.5z M26.8,195.4c0.7,0.1,2.1,0.2,3.4-0.1
								c0.2,0,0.3-0.1,0.4-0.2c0.3-0.4,0.2-1.2,0.2-1.8c-0.5,0-1.2,0-1.5,0C27.5,193.6,26.9,194.8,26.8,195.4z"/>
						</g>
						<g>
							<path class="st2" d="M32,196.1c0,0,0.4-2.9,3-2.1c1.1,0.3,1.7,1.2,1.7,1.2s-0.5,2.2-1.5,2C33.4,196.7,32,196.1,32,196.1z"/>
							<path class="st5" d="M35.3,197.7c-0.1,0-0.2,0-0.3,0c-1.8-0.4-3.2-1-3.2-1.1l-0.3-0.2l0.1-0.4c0-0.1,0.2-1.6,1.3-2.3
								c0.6-0.4,1.4-0.5,2.3-0.2c1.3,0.4,2,1.3,2,1.4l0.1,0.2l-0.1,0.2c0,0.2-0.4,1.7-1.2,2.2C35.8,197.6,35.6,197.7,35.3,197.7z
								 M32.6,195.8c0.5,0.2,1.5,0.6,2.7,0.9h0.1c0.3-0.2,0.6-0.8,0.7-1.3c-0.2-0.2-0.7-0.6-1.3-0.8s-1.1-0.2-1.4,0.1
								C33,194.9,32.7,195.4,32.6,195.8z"/>
						</g>
						<g>
							<path class="st2" d="M39.6,210.1c0,0,6-3.3,4.9-8.8c0.8,0.7,2.9,2.7,3.7,3.7c0,1.1,0.2,5.4-5.7,8.3
								C41.4,212.2,40.5,210.8,39.6,210.1z"/>
							<path class="st5" d="M42.3,213.9l-0.3-0.3c-0.4-0.4-0.8-0.9-1.2-1.4c-0.6-0.7-1.1-1.3-1.6-1.7l-0.6-0.5l0.7-0.4
								c0.1,0,5.7-3.2,4.6-8.3l-0.3-1.4l1.1,0.9c0.9,0.7,3,2.7,3.8,3.8l0.1,0.1v0.2c0,3.9-2,6.8-6,8.7L42.3,213.9z M40.4,210.2
								c0.4,0.4,0.8,0.9,1.3,1.4c0.3,0.3,0.6,0.7,0.9,1c5-2.6,5.1-6.2,5.1-7.5c-0.6-0.7-1.7-1.8-2.6-2.6
								C45.2,206.5,41.8,209.2,40.4,210.2z"/>
						</g>
						<path class="st6" d="M22.3,196.7c0,0,0-1,1-1.4c0.3-0.1,0.8-0.3,0.8-0.3s0.6,1.2-0.1,1.5C23.1,196.9,22.3,196.7,22.3,196.7z"
							/>
						<path class="st6" d="M27.4,195.3c0,0,0-1.3,1.5-1.5c0.3,0,1,0,1,0s0.3,1.4-0.5,1.5C28.6,195.4,27.4,195.3,27.4,195.3z"/>
						<path class="st6" d="M33,195.9c0,0,0.2-1.5,1.6-1.1c0.6,0.2,0.9,0.6,0.9,0.6s-0.3,1.2-0.8,1C33.7,196.2,33,195.9,33,195.9z"/>
						<path class="st7" d="M31.4,207.2h-5.5l0,0c0-2.8,2.3-5,5-5h0.5c1.4,0,2.5,1.1,2.5,2.5l0,0C33.9,206,32.8,207.2,31.4,207.2z"/>
						<g>
							<path class="st2" d="M30.9,207.1h-5l0,0c0-2.2,1.8-4,4-4h1c1.1,0,2,0.9,2,2l0,0C32.9,206.2,32,207.1,30.9,207.1z"/>
							<path class="st5" d="M30.9,207.6h-5.5v-0.5c0-2.5,2-4.5,4.5-4.5h1c1.4,0,2.5,1.1,2.5,2.5C33.4,206.5,32.3,207.6,30.9,207.6z
								 M26.5,206.6h4.4c0.8,0,1.5-0.7,1.5-1.5s-0.7-1.5-1.5-1.5h-1C28.2,203.6,26.8,204.9,26.5,206.6z"/>
						</g>
						<circle class="st5" cx="28" cy="206" r="1.1"/>
						<path class="st5" d="M18.7,208.2L18.7,208.2c0.3-0.1,0.6-0.2,0.8-0.5l0.4-0.5l-0.8,0.2l-0.5,0.1c-0.2,0-0.3,0.2-0.3,0.4l0,0
							C18.3,208.1,18.5,208.2,18.7,208.2z"/>
						<path class="st0" d="M40.6,210.2c0,0,4.7-2.5,4.6-7.6c2,1.5,2.5,2.4,2.5,2.4s-0.3,2.4-1.5,3.6
							C44.5,210.6,42.7,211.1,40.6,210.2z"/>
						<g>
							<path class="st2" d="M45,209.3c0,0-1.8,1.9-3.6,2.8"/>
							<path class="st5" d="M41.6,212.6l-0.5-0.9c1.7-0.8,3.5-2.6,3.5-2.7l0.7,0.7C45.3,209.8,43.4,211.6,41.6,212.6z"/>
						</g>
						<g>
							<path class="st4" d="M63.2,229l-1-2c-3.9-9.5-4.5-15.1-2.5-24.2l1.2-5.3c0.4-1.7,0.6-3.5,0.6-5.3l0,0c0-6-4.8-10.8-10.8-10.8
								H49c-5.9,0-10.6,4.8-10.6,10.6v0.3c0,1.4,1.1,2.5,2.5,2.5h11l-1.7,9.6c-5.1,25.7-4.6,36.1,5.5,34"/>
							<path class="st5" d="M53.3,239.7c-1.9,0-3.4-0.6-4.6-1.7c-3.7-3.7-3.6-13.2,0.5-33.7l1.5-8.4h-9.8c-2,0-3.5-1.6-3.5-3.5v-0.3
								c0-6.4,5.2-11.7,11.7-11.7h1.7c6.5,0,11.8,5.3,11.8,11.8c0,1.9-0.2,3.7-0.6,5.5l-1.2,5.3c-2,8.9-1.4,14.2,2.4,23.6l1,2
								l-1.8,0.9l-1-2c-4-9.8-4.6-15.6-2.5-24.9l1.2-5.3c0.4-1.7,0.6-3.4,0.6-5.1c0-5.4-4.4-9.8-9.8-9.8h-1.7
								c-5.3,0-9.6,4.3-9.6,9.6v0.3c0,0.8,0.7,1.5,1.5,1.5h12.2l-1.9,10.8c-2.7,13.6-5,28.1-1.1,31.9c1.1,1.1,2.9,1.4,5.3,0.9l0.4,2
								C55,239.6,54.1,239.7,53.3,239.7z"/>
						</g>
						<g>
							<path class="st2" d="M43.6,182.6c0,0,0.2-1.9,2-2.6c0.6-0.2,1.5,0,1.5,0s1.1,1.7-0.2,2.3C45.1,183.1,43.6,182.6,43.6,182.6z"
								/>
							<path class="st5" d="M44.8,183.2c-0.8,0-1.3-0.2-1.3-0.2l-0.4-0.1v-0.4c0-0.1,0.2-2.2,2.4-3c0.7-0.3,1.7,0,1.8,0l0.2,0.1
								l0.1,0.2c0.1,0.1,0.7,1.1,0.4,2.1c-0.1,0.4-0.4,0.7-0.8,0.9C46.3,183.1,45.4,183.2,44.8,183.2z M44.2,182.2
								c0.5,0.1,1.4,0.1,2.5-0.4c0.2-0.1,0.3-0.2,0.3-0.3c0.1-0.3-0.1-0.8-0.2-1.1c-0.3-0.1-0.7-0.1-0.9,0
								C44.8,180.8,44.4,181.7,44.2,182.2z"/>
						</g>
						<g>
							<path class="st2" d="M48.1,182c0,0,0.1-2.9,3.4-3.4c0.6-0.1,1.4,0,1.4,0s1.6,3.1-0.2,3.4C50.5,182.3,48.1,182,48.1,182z"/>
							<path class="st5" d="M50.5,182.6c-1.4,0-2.5-0.2-2.5-0.2l-0.4-0.1v-0.4c0-1.2,0.9-3.5,3.8-3.9c0.7-0.1,1.5,0,1.5,0h0.3
								l0.1,0.3c0.1,0.2,1.1,2.2,0.5,3.4c-0.1,0.3-0.4,0.6-1.1,0.8C52,182.6,51.2,182.6,50.5,182.6z M48.6,181.5
								c0.8,0.1,2.5,0.2,4-0.1c0.2,0,0.3-0.1,0.3-0.2c0.2-0.4-0.1-1.5-0.4-2.2c-0.3,0-0.7,0-1,0C49.4,179.4,48.8,180.8,48.6,181.5z"
								/>
						</g>
						<g>
							<path class="st2" d="M54,182.6c0,0,0.4-2.8,3-2c1.1,0.4,1.7,1.2,1.7,1.2s-0.6,2.1-1.6,1.9C55.3,183.2,54,182.6,54,182.6z"/>
							<path class="st5" d="M57.2,184.2c-0.1,0-0.2,0-0.3,0c-1.8-0.5-3.1-1.1-3.2-1.1l-0.3-0.2l0.1-0.4c0-0.1,0.3-1.6,1.4-2.2
								c0.6-0.4,1.4-0.4,2.3-0.1c1.2,0.4,1.9,1.4,1.9,1.4l0.1,0.2l-0.1,0.2c-0.1,0.3-0.5,1.6-1.3,2.1
								C57.6,184.2,57.4,184.2,57.2,184.2z M54.6,182.3c0.5,0.2,1.5,0.6,2.6,0.9h0.1c0.3-0.2,0.6-0.8,0.7-1.2
								c-0.2-0.2-0.6-0.6-1.3-0.8c-0.6-0.2-1-0.2-1.4,0C55,181.4,54.7,182,54.6,182.3z"/>
						</g>
						<g>
							<path class="st6" d="M43.8,233.1c0.6-0.5,1.3-0.7,1.8-0.9"/>
							<path class="st5" d="M44.1,233.5l-0.6-0.8c0.6-0.5,1.3-0.8,2-1l0.2,1C45.4,232.8,44.8,233,44.1,233.5z"/>
						</g>
						<g>
							<path class="st6" d="M47.5,233c-1.8-7.3,1.5-21.3,2-24.8l2.4-13.8h1c1.3,0,2.3,1.4,2.1,2.7l-1.7,12
								c-0.6,4.1-1.2,22.9,5.9,26.9c1.5,0.9,4,0.3,4.9-0.1c3.4-1.6,4.3-5.8,5.1-9.1c1.5-7,0.3-12.4,0-17.9l-0.4-6.8
								c-0.1-1.2,0.9-2.5,2.2-2.5h1.3l2.3,13.8c0.7,3.9,2.4,17.6-5.6,24c-0.1,0.1,2,0.6,1.3,1.7c-2.4,4.3-9.4,5-10.7,6.8
								c-5.1,7-0.3,22.1-0.3,22.1s-5.6-2.3-9.1-5.4c-8.2-7.3-9.2-17.9-9.2-21c0-3.7,0.9-6.1,2.1-7.4"/>
							<path class="st5" d="M59.9,268.6l-1-0.4c-0.2-0.1-5.8-2.3-9.3-5.5c-8.8-7.9-9.4-19.2-9.4-21.4c0-3.4,0.7-6,2.3-7.8l0.8,0.7
								c-1.4,1.6-2.1,4-2,7.1c0,1.3,0.4,12.9,9.1,20.7c2.5,2.3,6.3,4.1,8,4.9c-1-3.6-3.7-15.3,0.7-21.5c0.6-0.8,2-1.4,3.7-2.1
								c2.5-1,5.6-2.2,7-4.7c0.1-0.1,0-0.1,0-0.2c-0.1-0.2-0.7-0.5-0.9-0.6c-0.3-0.1-0.5-0.2-0.6-0.6v-0.3l0.2-0.2
								c7.7-6.2,6.1-19.5,5.4-23.5l-2.2-13.4h-0.8c-0.4,0-0.8,0.2-1.1,0.5c-0.4,0.4-0.6,1-0.6,1.5l0.4,6.8c0.1,1.2,0.2,2.5,0.3,3.8
								c0.4,4.3,0.9,8.8-0.3,14.3c-0.7,3.3-1.7,7.8-5.3,9.5c-0.9,0.5-3.6,1.1-5.3,0.1c-7.6-4.3-6.6-24-6.1-27.4l1.7-12
								c0.1-0.5-0.1-1.2-0.5-1.6c-0.3-0.4-0.7-0.6-1.1-0.6h-0.6l-2.3,13.4c-0.1,0.5-0.2,1.1-0.4,1.9c-1,4.9-3.2,16.4-1.7,22.6
								l-1,0.2c-1.6-6.4,0.6-17.7,1.7-23.1c0.2-0.8,0.3-1.5,0.4-1.9l2.4-14.2H53c0.7,0,1.4,0.3,1.9,0.9c0.6,0.7,0.9,1.6,0.7,2.4
								l-1.7,12c-0.7,4.7-1,22.6,5.6,26.4c1.3,0.7,3.5,0.2,4.4-0.2c3.2-1.5,4.1-5.7,4.8-8.8c1.2-5.3,0.7-9.7,0.3-14
								c-0.1-1.3-0.2-2.5-0.3-3.8l-0.4-6.8c0-0.8,0.3-1.7,0.9-2.3c0.5-0.5,1.1-0.8,1.8-0.8h1.7l2.3,14.2c0.7,4,2.3,17.3-5.2,24
								c0.4,0.2,0.9,0.5,1,1c0.1,0.2,0.1,0.6-0.1,1c-1.6,2.8-4.9,4.1-7.5,5.1c-1.5,0.6-2.8,1.1-3.3,1.7c-4.9,6.8-0.3,21.5-0.2,21.6
								L59.9,268.6z"/>
						</g>
						<g>
							<g>
								<path class="st2" d="M113.8,239.1c0,0,1.2-1.3,0.5-3c-0.2-0.5-0.9-1-0.9-1s-1.8,0.3-1.4,1.5
									C112.5,238.4,113.8,239.1,113.8,239.1z"/>
								<path class="st5" d="M113.9,239.8l-0.4-0.2c-0.1,0-1.5-0.8-2.1-2.8c-0.1-0.4-0.1-0.8,0.1-1.2c0.5-0.8,1.6-1,1.7-1h0.2
									l0.2,0.1c0.1,0.1,0.9,0.6,1.1,1.2c0.8,2-0.6,3.5-0.6,3.5L113.9,239.8z M113.2,235.7c-0.3,0.1-0.7,0.2-0.8,0.5
									c0,0.1-0.1,0.2,0,0.4c0.3,1,0.9,1.6,1.2,1.9c0.2-0.4,0.5-1.2,0.2-2.1C113.7,236.1,113.5,235.8,113.2,235.7z"/>
							</g>
							<path class="st6" d="M113.4,237.3c0,0,0.4-0.5,0.2-1.1c-0.1-0.2-0.3-0.3-0.3-0.3s-0.6,0.1-0.5,0.5
								C112.9,237.1,113.4,237.3,113.4,237.3z"/>
						</g>
						<g>
							<g>
								<path class="st2" d="M104.3,248.3c0,0-1.1-2.5,1.5-4.2c0.5-0.3,1.2-0.6,1.2-0.6s2.5,2,1.2,2.9
									C106.5,247.7,104.3,248.3,104.3,248.3z"/>
								<path class="st5" d="M104,248.9l-0.2-0.4c-0.4-1-0.6-3.3,1.7-4.8c0.5-0.3,1.2-0.6,1.3-0.6l0.3-0.1l0.2,0.2
									c0.3,0.2,1.8,1.5,1.8,2.7c0,0.3-0.1,0.7-0.6,1.1c-1.7,1.2-3.9,1.8-4,1.9L104,248.9z M106.9,244.2c-0.2,0.1-0.6,0.2-0.8,0.4
									c-1.6,1-1.6,2.4-1.5,3.1c0.7-0.3,2.1-0.8,3.3-1.6c0.2-0.1,0.2-0.2,0.2-0.3C108.1,245.4,107.4,244.7,106.9,244.2z"/>
							</g>
							<path class="st6" d="M105.2,247.4c0,0-0.6-1.4,0.8-2.3c0.3-0.2,0.7-0.3,0.7-0.3s1.4,1.1,0.7,1.6
								C106.4,247,105.2,247.4,105.2,247.4z"/>
						</g>
						<g>
							<g>
								<path class="st2" d="M112.3,240.1c0,0,1.9,1.7,0.1,3.2c-0.8,0.6-1.7,0.7-1.7,0.7s-1.3-1.4-0.7-2.1
									C111.2,240.8,112.3,240.1,112.3,240.1z"/>
								<path class="st5" d="M110.5,244.5l-0.2-0.2c-0.2-0.2-1-1.1-1-2c0-0.3,0.1-0.6,0.4-0.8c1.2-1.1,2.3-1.8,2.4-1.8l0.3-0.2
									l0.3,0.2c0,0,1.1,0.9,1,2.1c0,0.7-0.3,1.3-1,1.8c-0.9,0.7-1.9,0.8-2,0.8L110.5,244.5z M112.2,240.8
									c-0.4,0.3-1.1,0.8-1.9,1.5c0,0.3,0.3,0.8,0.5,1.2c0.3-0.1,0.7-0.2,1.2-0.5c0.4-0.3,0.6-0.7,0.6-1
									C112.7,241.4,112.4,241,112.2,240.8z"/>
							</g>
							<path class="st6" d="M112,241.3c0,0,0.8,0.7,0,1.4c-0.3,0.3-0.7,0.3-0.7,0.3s-0.6-0.6-0.3-0.9
								C111.5,241.6,112,241.3,112,241.3z"/>
						</g>
						<g>
							<g>
								<path class="st2" d="M95.1,249.6c0,0-0.6-2.2,1.8-3.1c2.5-0.9,3.1-0.1,3.1-0.1s1.4,2.3,0.1,3
									C99,250.1,95.1,249.6,95.1,249.6z"/>
								<path class="st5" d="M97.6,250.3c-1.2,0-2.4-0.1-2.6-0.2h-0.3l-0.1-0.3c-0.3-0.9-0.1-2.9,2.2-3.7c2.6-1,3.5-0.2,3.7,0
									c0.7,1.1,1.3,3,0,3.8C99.9,250.2,98.7,250.3,97.6,250.3z M95.5,249.2c1.5,0.2,3.7,0.2,4.4-0.2c0.6-0.4,0-1.8-0.3-2.3
									c-0.2-0.1-0.8-0.3-2.6,0.3C95.6,247.5,95.5,248.6,95.5,249.2z"/>
							</g>
							<path class="st6" d="M96.3,249.1c0,0-0.3-1.2,1-1.6s1.6-0.1,1.6-0.1s0.7,1.2,0.1,1.6C98.3,249.4,96.3,249.1,96.3,249.1z"/>
						</g>
						<g>
							<path class="st2" d="M51.3,197.8c0,0,3.9,2.2,9.5,0.2c-0.4,1.7-1.2,5.2-1.2,5.2s-5.1,1.6-9.1-0.9
								C51,199.9,51.3,197.8,51.3,197.8z"/>
							<path class="st5" d="M56,204.1c-1.7,0-3.8-0.3-5.7-1.5l-0.3-0.2l0.1-0.3c0.4-2.3,0.8-4.5,0.8-4.5l0.1-0.7l0.6,0.4
								c0,0,3.8,2.1,9,0.2l0.9-0.3l-0.2,0.9c-0.4,1.7-1.2,5.2-1.2,5.2l-0.1,0.3l-0.3,0.1C59.7,203.7,58.1,204.1,56,204.1z M51.1,202
								c3.1,1.8,7,1,8.1,0.8c0.2-0.7,0.6-2.6,0.9-4c-4,1.2-7.1,0.3-8.4-0.2C51.6,199.3,51.4,200.6,51.1,202z"/>
						</g>
						<g>
							<path class="st2" d="M80.8,187.8c0,0-0.2-1.9-2.1-2.6c-0.6-0.2-2.1-0.3-2.1-0.3s-0.4,2,0.8,2.6
								C79.2,188.3,80.8,187.8,80.8,187.8z"/>
							<path class="st5" d="M79.6,188.4c-0.6,0-1.5-0.1-2.4-0.5c-1.6-0.8-1.1-3.1-1.1-3.2l0.1-0.4h0.4c0.2,0,1.6,0.1,2.3,0.3
								c2.1,0.9,2.4,3,2.4,3.1v0.4l-0.4,0.1C80.9,188.3,80.4,188.4,79.6,188.4z M77,185.4c0,0.5,0,1.3,0.6,1.6
								c1.1,0.5,2,0.5,2.5,0.4c-0.2-0.5-0.6-1.4-1.6-1.8C78.2,185.5,77.6,185.4,77,185.4z"/>
						</g>
						<g>
							<path class="st2" d="M76,186.8c0,0-0.1-2.6-2.9-2.9c-0.5-0.1-1.2,0-1.2,0s-1.4,2.7,0.2,3C73.9,187.1,76,186.8,76,186.8z"/>
							<path class="st5" d="M73.9,187.5c-0.6,0-1.3,0-2-0.2c-0.6-0.1-0.8-0.4-1-0.7c-0.5-1,0.3-2.7,0.4-3l0.1-0.3h0.3
								c0,0,0.8-0.1,1.3,0c2.6,0.3,3.4,2.4,3.4,3.4v0.4l-0.4,0.1C76,187.3,75.1,187.5,73.9,187.5z M72.2,184.3
								c-0.3,0.6-0.5,1.5-0.3,1.8c0,0,0.1,0.1,0.2,0.1c1.2,0.2,2.6,0.1,3.3,0.1c-0.2-0.6-0.7-1.8-2.4-2
								C72.7,184.3,72.4,184.3,72.2,184.3z"/>
						</g>
						<g>
							<path class="st2" d="M70.5,187c0,0-0.5-2.8-3-2c-1.1,0.4-1.7,1.2-1.7,1.2s0.6,2.2,1.6,1.9C69.2,187.6,70.5,187,70.5,187z"/>
							<path class="st5" d="M67.3,188.6c-0.2,0-0.4-0.1-0.6-0.2c-0.8-0.5-1.2-1.8-1.3-2.1l-0.1-0.2l0.1-0.2c0,0,0.7-1,1.9-1.4
								c0.9-0.3,1.6-0.2,2.3,0.1c1.1,0.7,1.4,2.2,1.4,2.2l0.1,0.4l-0.3,0.2c-0.1,0-1.4,0.7-3.2,1.1
								C67.5,188.6,67.4,188.6,67.3,188.6z M66.4,186.3c0.2,0.5,0.5,1.1,0.7,1.3c0.1,0,0.1,0,0.1,0c1.2-0.3,2.1-0.7,2.6-0.9
								c-0.1-0.4-0.4-0.9-0.8-1.2c-0.4-0.2-0.8-0.2-1.4,0C67.1,185.7,66.6,186.1,66.4,186.3z"/>
						</g>
						<path class="st6" d="M44.6,182.1c0,0,0.1-1,1.1-1.4c0.3-0.1,0.8,0,0.8,0s0.6,0.9-0.1,1.2C45.4,182.4,44.6,182.1,44.6,182.1z"
							/>
						<path class="st6" d="M49.2,181.5c0,0,0-1.8,2.1-2.1c0.4-0.1,0.9,0,0.9,0s1,1.9-0.1,2.1C50.7,181.7,49.2,181.5,49.2,181.5z"/>
						<path class="st6" d="M55.1,182.3c0,0,0.3-1.6,1.7-1.1c0.6,0.2,1,0.7,1,0.7s-0.3,1.2-0.9,1.1C55.8,182.7,55.1,182.3,55.1,182.3
							z"/>
						<path class="st6" d="M79.8,187.3c0,0-0.1-1-1.1-1.4c-0.3-0.1-1.1-0.2-1.1-0.2s-0.2,1.1,0.4,1.4
							C79,187.6,79.8,187.3,79.8,187.3z"/>
						<path class="st6" d="M74.9,186.4c0,0,0-1.4-1.6-1.6c-0.3,0-0.7,0-0.7,0s-0.8,1.5,0.1,1.6C73.7,186.5,74.9,186.4,74.9,186.4z"
							/>
						<path class="st6" d="M69.5,186.8c0,0-0.2-1.6-1.6-1.1c-0.6,0.2-0.9,0.7-0.9,0.7s0.3,1.2,0.9,1
							C68.8,187.1,69.5,186.8,69.5,186.8z"/>
						<g>
							<path class="st2" d="M63.1,202.6c0,0,4.9,0.8,9.5-0.4c0.5,2.5,0.7,4.4,0.7,4.4s-3.2,2.2-9.1,0.9
								C63.5,204.4,63.1,202.6,63.1,202.6z"/>
							<path class="st5" d="M67.8,208.5c-1.1,0-2.3-0.1-3.7-0.4l-0.3-0.1l-0.1-0.3c-0.7-3.2-1.1-4.9-1.1-4.9l-0.2-0.7l0.7,0.1
								c0,0,4.8,0.7,9.3-0.4l0.5-0.1l0.1,0.5c0.5,2.5,0.7,4.4,0.7,4.4v0.3l-0.3,0.2C73.5,207.2,71.5,208.5,67.8,208.5z M64.6,207.2
								c4.5,0.9,7.3-0.3,8.2-0.8c-0.1-0.6-0.3-1.9-0.6-3.5c-3.5,0.8-7,0.5-8.4,0.4C63.9,204,64.2,205.3,64.6,207.2z"/>
						</g>
						<path class="st7" d="M71.1,197.7h5.5l0,0c0-2.8-2.3-5-5-5h-0.5c-1.4,0-2.5,1.1-2.5,2.5l0,0C68.6,196.6,69.8,197.7,71.1,197.7z
							"/>
						<g>
							<path class="st2" d="M71.8,197.6h4.8l0,0c0-2.2-1.8-4-4-4h-1.1c-1,0-1.8,0.8-1.8,1.8l0,0C69.6,196.7,70.6,197.6,71.8,197.6z"
								/>
							<path class="st5" d="M77.1,198.2h-5.3c-1.4,0-2.6-1.2-2.6-2.6c0-1.3,1.1-2.3,2.3-2.3h1.1c2.5,0,4.5,2,4.5,4.5V198.2z
								 M71.5,194.2c-0.7,0-1.3,0.6-1.3,1.3c0,0.9,0.7,1.6,1.6,1.6h4.3c-0.2-1.7-1.7-2.9-3.4-2.9L71.5,194.2L71.5,194.2z"/>
						</g>
						<circle class="st5" cx="74.2" cy="195.4" r="1.1"/>
						<path class="st7" d="M52,193h-5.5l0,0c0-2.8,2.3-5,5-5H52c1.4,0,2.5,1.1,2.5,2.5l0,0C54.5,191.8,53.4,193,52,193z"/>
						<g>
							<path class="st2" d="M51.6,192.9h-5l0,0c0-2.2,1.8-4,4-4h1c1.1,0,2,0.9,2,2l0,0C53.5,192,52.7,192.9,51.6,192.9z"/>
							<path class="st5" d="M51.6,193.4h-5.5v-0.5c0-2.5,2-4.5,4.5-4.5h1c1.4,0,2.5,1.1,2.5,2.5C54,192.3,52.9,193.4,51.6,193.4z
								 M47.1,192.4h4.4c0.8,0,1.5-0.7,1.5-1.5s-0.7-1.5-1.5-1.5h-1C48.8,189.4,47.4,190.7,47.1,192.4z"/>
						</g>
						<circle class="st5" cx="51.3" cy="191.7" r="1.1"/>
						<path class="st5" d="M83.3,198.9L83.3,198.9c-0.3-0.1-0.6-0.2-0.8-0.5l-0.4-0.5l0.8,0.2l0.5,0.1c0.2,0,0.3,0.2,0.3,0.4l0,0
							C83.7,198.8,83.5,198.9,83.3,198.9z"/>
						<path class="st5" d="M40.7,193.7L40.7,193.7c0.3-0.1,0.6-0.2,0.8-0.5l0.4-0.5l-0.8,0.2l-0.5,0.1c-0.2,0-0.3,0.2-0.3,0.4l0,0
							C40.3,193.6,40.5,193.8,40.7,193.7z"/>
						<path class="st0" d="M51.8,198.5c0,0,4.1,1.8,8.3,0.2c-0.4,2.4-0.8,3.7-0.8,3.7s-2.5,0.1-4.2-0.2
							C52.8,201.7,51.8,200.6,51.8,198.5z"/>
						<g>
							<path class="st2" d="M57.6,201.6c0,0-3.7,0.3-6.7-1.2"/>
							<path class="st5" d="M56.7,202.1c-1.3,0-3.9-0.2-6-1.3l0.5-0.9c2.7,1.4,6.3,1.1,6.4,1.1l0.1,1
								C57.5,202.1,57.2,202.1,56.7,202.1z"/>
						</g>
						<path class="st0" d="M70.8,203.2c0,0-3.7,1-6.9,0.4c0.6,2.4,0.9,3.2,0.9,3.2S69.7,206.1,70.8,203.2z"/>
						<g>
							<path class="st6" d="M68.8,237.3c0,0-0.2,0.2-0.5,0.3"/>
							<path class="st5" d="M68.4,237.8l-0.3-0.4c0.3-0.2,0.5-0.3,0.5-0.3l0.3,0.4C69,237.5,68.8,237.6,68.4,237.8z"/>
						</g>
						<g>
							<path class="st2" d="M71.2,204.6c0,0-3.7,0.7-7.6,0.2"/>
							<path class="st5" d="M66.4,205.5c-0.9,0-1.9,0-2.9-0.2l0.1-1c3.8,0.5,7.4-0.2,7.4-0.2l0.2,1
								C71.1,205.1,69.1,205.5,66.4,205.5z"/>
						</g>
						<g>
							<g>
								<path class="st2" d="M65.1,280.2c0,0-1-0.8-2.3,0.3c-1.2,1-2.1,2.5-1.5,2.6s1.5,0.3,2.4,0.1c0.9-0.2,1.6,0,2-1.8
									C65.9,280.6,65.1,280.2,65.1,280.2z"/>
								<path class="st5" d="M62.8,283.6c-0.8,0-1.4-0.1-1.6-0.2c-0.2,0-0.3-0.2-0.3-0.4c-0.1-0.6,0.8-1.9,1.8-2.7
									c1.3-1.1,2.4-0.4,2.6-0.3c0.3,0.2,0.8,0.7,0.7,1.5c-0.3,1.7-1.1,1.8-1.8,1.9c-0.1,0-0.2,0-0.3,0
									C63.5,283.6,63.1,283.6,62.8,283.6z M64.2,280.2c-0.3,0-0.7,0.1-1.2,0.5c-1,0.9-1.7,2-1.6,2.2c0.2,0,1.2,0.3,2.3,0.1
									c0.1,0,0.2,0,0.3-0.1c0.7-0.1,1.1-0.2,1.4-1.5c0.1-0.6-0.4-1-0.5-1l0,0C65,280.4,64.7,280.2,64.2,280.2z"/>
							</g>
							<path class="st0" d="M64.9,280.5c0,0-0.6-0.5-1.4,0.2c-0.7,0.6-1.3,1.5-1,1.6s0.9,0.2,1.5,0.1c0.5-0.1,1,0,1.2-1.1
								C65.4,280.8,64.9,280.5,64.9,280.5z"/>
						</g>
						<g>
							<g>
								<path class="st2" d="M66.5,280.2c0.5-0.1,1.3,1.1,1.2,1.4c-0.1,0.3-0.1,1.5-1,1.6c-0.6,0.1-2.8,0.3-3.3-0.2
									C63,282.6,63.9,280.6,66.5,280.2z"/>
								<path class="st5" d="M64.9,283.6c-0.7,0-1.4-0.1-1.7-0.4c-0.2-0.2-0.2-0.6-0.1-1c0.3-1,1.5-2,3.3-2.3c0.4,0,0.7,0.2,0.9,0.5
									c0.3,0.3,0.6,0.9,0.5,1.2c0,0,0,0.1,0,0.2c-0.1,0.5-0.3,1.5-1.2,1.6C66.6,283.5,65.8,283.6,64.9,283.6z M66.6,280.5
									L66.6,280.5L66.6,280.5c-1.9,0.3-2.7,1.3-2.9,1.9c-0.1,0.3-0.1,0.4,0,0.5c0.3,0.3,2,0.2,3.1,0.1c0.5-0.1,0.6-0.7,0.7-1.2
									c0-0.1,0-0.2,0-0.2c0-0.1-0.2-0.5-0.5-0.9C66.8,280.5,66.6,280.5,66.6,280.5z"/>
							</g>
							<path class="st0" d="M66.7,280.5c0.3,0,0.7,0.6,0.7,0.8c-0.1,0.2-0.1,0.9-0.6,0.9c-0.4,0.1-1.7,0.2-1.9-0.1
								C64.6,281.9,65.1,280.7,66.7,280.5z"/>
						</g>
						<g>
							<g>
								<path class="st2" d="M68.7,280.4c0,0-0.4-0.2-1.3,0.3c-0.8,0.4-1.9,1.2-1.6,2c0.3,0.9,2.8,0.6,3.3,0.4s0.9-0.8,0.8-1.3
									C69.6,280.7,68.7,280.4,68.7,280.4z"/>
								<path class="st5" d="M67.3,283.6c-0.8,0-1.6-0.2-1.8-0.8c-0.4-1.1,1.1-1.9,1.7-2.3c0.9-0.5,1.4-0.3,1.5-0.3
									c0.2,0.1,1.1,0.4,1.3,1.6c0.1,0.7-0.3,1.4-1,1.6C68.9,283.4,68.1,283.6,67.3,283.6z M68.4,280.6c-0.2,0-0.5,0.1-0.9,0.3
									c-0.9,0.5-1.7,1.1-1.5,1.7s2.4,0.4,3,0.2c0.4-0.1,0.7-0.6,0.6-1c-0.2-1-1-1.2-1-1.2l0,0C68.6,280.7,68.5,280.6,68.4,280.6z"
									/>
							</g>
							<path class="st0" d="M68.9,280.7c0,0-0.3-0.1-0.8,0.2c-0.5,0.3-1.1,0.7-1,1.2c0.2,0.5,1.6,0.3,2,0.2c0.3-0.1,0.5-0.5,0.5-0.8
								C69.4,280.9,68.9,280.7,68.9,280.7z"/>
						</g>
						<g>
							<path class="st4" d="M58.4,252.2c0,0,0.5,5.7-0.9,14.7c-1.3,8.3-3.7,11-3.6,13.1c0.1,1.7,0.8,3.2,2.5,3.2h5
								c2.3,0,4.4-1.5,5.2-3.7c0.6-1.8,1.2-4.2,1.6-7.3c0.4-4.2,0.3-8.4,0.2-10.8"/>
							<path class="st5" d="M61.4,284.2h-5c-2,0-3.3-1.5-3.5-4.1c-0.1-1.1,0.3-2.3,0.9-3.8c0.8-2,1.9-4.8,2.6-9.5
								c1.4-8.7,0.9-14.4,0.9-14.4l2-0.2c0,0.2,0.5,5.9-1,14.9c-0.8,4.9-2,7.9-2.7,9.9c-0.5,1.4-0.9,2.3-0.8,2.9
								c0.1,1,0.4,2.3,1.5,2.3h5c1.9,0,3.6-1.2,4.2-3c0.7-2.1,1.3-4.5,1.6-7.1c0.4-3.9,0.3-7.7,0.2-10.7l2-0.1c0.1,3,0.1,6.9-0.2,11
								c-0.3,2.7-0.9,5.2-1.7,7.5C66.7,282.4,64.2,284.2,61.4,284.2z"/>
						</g>
						<g>
							<path class="st4" d="M84.1,256c-1.7,1.4-2.5,3.8-2.5,5.9c0,2.9,1.7,6.5,0.6,11.3c-0.9,4.3-2.8,5-2.2,8.8
								c0.1,0.7,0.7,1.2,1.4,1.2H87c2.6,0,4.8-1.9,5.2-4.4c1.1-6.8,0.3-13.2-0.6-18.1"/>
							<path class="st5" d="M87,284.2h-5.6c-1.2,0-2.2-0.9-2.4-2.1c-0.4-2.6,0.2-4,1-5.6c0.4-1,0.9-2,1.3-3.6c0.7-3,0.2-5.5-0.2-7.7
								c-0.2-1.2-0.4-2.3-0.4-3.4c0-2.6,1.1-5.2,2.9-6.7l1.3,1.5c-1.3,1.2-2.2,3.1-2.2,5.1c0,0.9,0.2,1.9,0.4,3
								c0.4,2.3,0.9,5.1,0.2,8.5c-0.4,1.8-1,3-1.4,4c-0.7,1.5-1.1,2.4-0.8,4.4c0,0.2,0.2,0.3,0.4,0.3h5.6c2.1,0,3.9-1.5,4.2-3.6
								c1.1-6.7,0.2-13-0.6-17.7l2-0.4c0.9,4.9,1.8,11.5,0.6,18.4C92.7,282,90.1,284.2,87,284.2z"/>
						</g>
						<polygon class="st5" points="85.4,263.3 83.5,262.4 85.4,260.9 86.2,261.2 86.1,261.6 85.5,261.5 84.5,262.3 85.4,262.8 
							86,262.4 85.6,262.3 85.4,262.5 85.1,262.1 85.5,261.8 87.3,262.2 						"/>
						<g>
							<g>
								<path class="st2" d="M55,280.2c0,0-1-0.8-2.3,0.3c-1.2,1-2.1,2.5-1.5,2.6s1.5,0.3,2.4,0.1c0.9-0.2,1.6,0,2-1.8
									C55.7,280.6,55,280.2,55,280.2z"/>
								<path class="st5" d="M52.7,283.8c-0.8,0-1.4-0.1-1.6-0.2c-0.3-0.1-0.5-0.3-0.5-0.5c-0.2-0.8,1-2.3,1.9-3
									c1.2-1,2.4-0.7,2.9-0.3c0.4,0.2,1,0.8,0.8,1.8c-0.3,1.8-1.1,2-2,2.1c-0.1,0-0.2,0-0.3,0C53.3,283.8,53,283.8,52.7,283.8z
									 M51.6,282.7c0.4,0.1,1.1,0.2,2,0c0.1,0,0.2,0,0.4-0.1c0.6-0.1,1-0.1,1.2-1.3c0.1-0.4-0.3-0.7-0.3-0.7h-0.1
									c-0.1-0.1-0.7-0.5-1.6,0.3C52.3,281.5,51.7,282.3,51.6,282.7z"/>
							</g>
							<path class="st0" d="M54.8,280.5c0,0-0.6-0.5-1.4,0.2c-0.7,0.6-1.3,1.5-1,1.6s0.9,0.2,1.5,0.1c0.5-0.1,1,0,1.2-1.1
								C55.2,280.8,54.8,280.5,54.8,280.5z"/>
						</g>
						<polygon class="st5" points="63.1,268.3 60.7,268.2 60.4,265.9 62.6,265.2 62.7,265.7 60.9,266.3 61.2,267.7 62.9,267.8 
							63.5,267 62.7,266.6 62.1,266.7 62.5,267.1 62.1,267.5 61.2,266.5 62.7,266 64.3,266.9 						"/>
						<g class="st8">
							<g>
								<path class="st6" d="M20.4,205.2c-0.4,0-0.7-0.3-0.7-0.7H20c0,0.2,0.2,0.4,0.4,0.4s0.4-0.2,0.4-0.4h0.3
									C21.1,204.9,20.8,205.2,20.4,205.2z"/>
								<path class="st6" d="M19.3,205.2c-0.4,0-0.7-0.3-0.7-0.7h0.3c0,0.2,0.2,0.4,0.4,0.4s0.4-0.2,0.4-0.4H20
									C20,204.9,19.7,205.2,19.3,205.2z"/>
								<path class="st6" d="M19.9,205.7c-0.4,0-0.7-0.3-0.7-0.7h0.2c0,0.2,0.2,0.4,0.4,0.4s0.4-0.2,0.4-0.4h0.3
									C20.5,205.4,20.2,205.7,19.9,205.7z"/>
							</g>
							<g>
								<path class="st6" d="M41.1,204.3c-0.2,0-0.3,0-0.5-0.1l0.1-0.2c0.3,0.2,0.7,0.1,0.9-0.2c0.2-0.3,0.1-0.7-0.2-0.9l0.1-0.2
									c0.4,0.3,0.6,0.8,0.3,1.3C41.7,204.1,41.4,204.3,41.1,204.3z"/>
								<path class="st6" d="M41.4,205.4c-0.2,0-0.3,0-0.5-0.1l0.1-0.2c0.3,0.2,0.7,0.1,0.9-0.2c0.2-0.3,0.1-0.7-0.2-0.9l0.1-0.2
									c0.4,0.3,0.6,0.8,0.3,1.3C42,205.2,41.7,205.4,41.4,205.4z"/>
							</g>
							<g>
								<path class="st6" d="M67.2,223.1c-0.5,0-0.9-0.4-0.9-0.9h0.3c0,0.3,0.3,0.6,0.6,0.6s0.6-0.3,0.6-0.6h0.3
									C68.1,222.8,67.7,223.1,67.2,223.1z"/>
								<path class="st6" d="M65.8,223.1c-0.5,0-0.9-0.4-0.9-0.9h0.3c0,0.3,0.3,0.6,0.6,0.6s0.6-0.3,0.6-0.6h0.3
									C66.6,222.8,66.2,223.1,65.8,223.1z"/>
								<path class="st6" d="M66.5,223.9c-0.5,0-0.9-0.4-0.9-0.9h0.3c0,0.3,0.3,0.6,0.6,0.6s0.6-0.3,0.6-0.6h0.3
									C67.4,223.5,67,223.9,66.5,223.9z"/>
							</g>
							<g>
								<path class="st6" d="M45.4,269.4c-0.5,0-0.9-0.4-0.9-0.9h0.3c0,0.3,0.3,0.6,0.6,0.6s0.6-0.3,0.6-0.6h0.3
									C46.3,269,45.9,269.4,45.4,269.4z"/>
								<path class="st6" d="M44,269.4c-0.5,0-0.9-0.4-0.9-0.9h0.3c0,0.3,0.3,0.6,0.6,0.6s0.6-0.3,0.6-0.6h0.3
									C44.8,269,44.5,269.4,44,269.4z"/>
								<path class="st6" d="M44.7,270.1c-0.5,0-0.9-0.4-0.9-0.9h0.3c0,0.3,0.3,0.6,0.6,0.6s0.6-0.3,0.6-0.6h0.3
									C45.6,269.7,45.2,270.1,44.7,270.1z"/>
							</g>
							<g>
								<path class="st6" d="M66.2,200c-0.5,0-0.9-0.4-0.9-0.9h0.3c0,0.4,0.3,0.7,0.7,0.7s0.7-0.3,0.7-0.7h0.3
									C67.1,199.5,66.7,200,66.2,200z"/>
								<path class="st6" d="M65.4,200.8c-0.5,0-0.9-0.4-0.9-0.9h0.3c0,0.4,0.3,0.7,0.7,0.7s0.7-0.3,0.7-0.7h0.3
									C66.3,200.3,65.9,200.8,65.4,200.8z"/>
							</g>
							<g>
								<path class="st6" d="M56.1,214.3c-0.6,0-1.1-0.5-1.1-1.1h0.3c0,0.5,0.4,0.8,0.8,0.8c0.5,0,0.8-0.4,0.8-0.8h0.3
									C57.2,213.8,56.7,214.3,56.1,214.3z"/>
								<path class="st6" d="M55.1,215.3c-0.6,0-1.1-0.5-1.1-1.1h0.3c0,0.5,0.4,0.8,0.8,0.8c0.5,0,0.8-0.4,0.8-0.8h0.3
									C56.2,214.8,55.7,215.3,55.1,215.3z"/>
							</g>
							<g>
								<path class="st6" d="M41.6,189.8c-0.4,0-0.8-0.3-0.8-0.8h0.3c0,0.3,0.2,0.5,0.5,0.5c0.3,0,0.5-0.2,0.5-0.5h0.3
									C42.4,189.4,42.1,189.8,41.6,189.8z"/>
								<path class="st6" d="M41,190.4c-0.4,0-0.8-0.3-0.8-0.8h0.3c0,0.3,0.2,0.5,0.5,0.5c0.3,0,0.5-0.2,0.5-0.5h0.3
									C41.8,190.1,41.4,190.4,41,190.4z"/>
							</g>
							<g>
								<path class="st6" d="M102.9,255C102.8,255,102.8,255,102.9,255c-0.3,0-0.5-0.1-0.7-0.3l0.2-0.2c0.1,0.1,0.3,0.2,0.4,0.2
									c0.2,0,0.3,0,0.5-0.1c0.3-0.2,0.3-0.6,0.1-0.9l0.2-0.2c0.3,0.4,0.3,0.9-0.1,1.2C103.3,255,103.1,255,102.9,255z"/>
								<path class="st6" d="M102.8,256.1c-0.2,0-0.5-0.1-0.7-0.3l0.2-0.2c0.2,0.3,0.6,0.3,0.9,0.1c0.1-0.1,0.2-0.3,0.2-0.4
									s0-0.3-0.1-0.5l0.2-0.2c0.2,0.2,0.2,0.4,0.2,0.6s-0.1,0.4-0.3,0.6C103.2,256,103,256.1,102.8,256.1z"/>
							</g>
							<g>
								<path class="st6" d="M73.3,244.9c-0.4,0-0.7-0.2-0.9-0.6l0.2-0.1c0.2,0.4,0.6,0.5,1,0.4c0.2-0.1,0.3-0.2,0.4-0.4
									s0.1-0.4,0-0.6l0.2-0.1c0.1,0.2,0.1,0.5,0,0.8s-0.3,0.5-0.5,0.6C73.6,244.9,73.4,244.9,73.3,244.9z"/>
								<path class="st6" d="M71.7,245.7c-0.4,0-0.7-0.2-0.9-0.6L71,245c0.2,0.4,0.6,0.5,1,0.4c0.4-0.2,0.5-0.6,0.4-1l0.2-0.1
									c0.2,0.5,0,1.1-0.5,1.3C72,245.6,71.8,245.7,71.7,245.7z"/>
								<path class="st6" d="M72.9,246.1c-0.4,0-0.7-0.2-0.9-0.6l0.2-0.1c0.2,0.4,0.6,0.5,1,0.4c0.4-0.2,0.5-0.6,0.4-1l0.2-0.1
									c0.2,0.5,0,1.1-0.5,1.3C73.1,246.1,73,246.1,72.9,246.1z"/>
								<path class="st6" d="M71.2,246.8c-0.1,0-0.2,0-0.4-0.1c-0.3-0.1-0.5-0.3-0.6-0.5l0.2-0.1c0.1,0.2,0.2,0.3,0.4,0.4
									c0.2,0.1,0.4,0.1,0.6,0s0.3-0.2,0.4-0.4s0.1-0.4,0-0.6l0.2-0.1c0.1,0.2,0.1,0.5,0,0.8s-0.3,0.5-0.5,0.6
									C71.5,246.8,71.4,246.8,71.2,246.8z"/>
								<path class="st6" d="M74,246.5c-0.1,0-0.2,0-0.4-0.1c-0.3-0.1-0.5-0.3-0.6-0.5l0.2-0.1c0.1,0.2,0.2,0.3,0.4,0.4
									c0.2,0.1,0.4,0.1,0.6,0s0.3-0.2,0.4-0.4c0.1-0.2,0.1-0.4,0-0.6l0.2-0.1c0.1,0.2,0.1,0.5,0,0.8s-0.3,0.5-0.5,0.6
									C74.3,246.5,74.2,246.5,74,246.5z"/>
							</g>
							<g>
								<path class="st6" d="M58.1,196.6c-0.6,0-1-0.5-1-1h0.3c0,0.4,0.3,0.8,0.8,0.8s0.8-0.3,0.8-0.8h0.3
									C59.1,196.1,58.6,196.6,58.1,196.6z"/>
							</g>
							<g>
								<path class="st6" d="M57.7,230.1c-0.6,0-1-0.5-1-1H57c0,0.4,0.3,0.8,0.8,0.8s0.8-0.3,0.8-0.8h0.3
									C58.8,229.7,58.3,230.1,57.7,230.1z"/>
							</g>
							<g>
								<path class="st6" d="M67.6,211.4c-0.4,0-0.8-0.4-0.8-0.8h0.3c0,0.3,0.2,0.5,0.5,0.5s0.5-0.2,0.5-0.5h0.3
									C68.4,211.1,68,211.4,67.6,211.4z"/>
							</g>
							<g>
								<path class="st6" d="M83.4,196c-0.3,0-0.6-0.3-0.6-0.6h0.3c0,0.2,0.2,0.4,0.4,0.4s0.4-0.2,0.4-0.4h0.3
									C84.1,195.7,83.8,196,83.4,196z"/>
							</g>
							<g>
								<path class="st6" d="M88,270.4c-0.5,0-0.9-0.3-1-0.8h0.2c0.1,0.4,0.5,0.7,0.9,0.6c0.2,0,0.4-0.1,0.5-0.3
									c0.1-0.2,0.2-0.4,0.1-0.6h0.2c0,0.3,0,0.5-0.2,0.8c-0.2,0.2-0.4,0.4-0.7,0.4C88.1,270.4,88.1,270.4,88,270.4z"/>
							</g>
							<g>
								<path class="st6" d="M63.6,277.2c-0.6,0-1.1-0.5-1.1-1.1h0.3c0,0.5,0.4,0.8,0.8,0.8c0.5,0,0.8-0.4,0.8-0.8h0.3
									C64.7,276.7,64.2,277.2,63.6,277.2z"/>
								<path class="st6" d="M62.6,278.1c-0.6,0-1.1-0.5-1.1-1.1h0.3c0,0.5,0.4,0.8,0.8,0.8c0.5,0,0.8-0.4,0.8-0.8h0.3
									C63.7,277.6,63.2,278.1,62.6,278.1z"/>
							</g>
						</g>
						<g>
							<g>
								<path class="st2" d="M56.4,280.2c0.5-0.1,1.3,1.1,1.2,1.4c-0.1,0.3-0.1,1.5-1,1.6c-0.6,0.1-2.8,0.3-3.3-0.2
									C52.8,282.6,53.7,280.6,56.4,280.2z"/>
								<path class="st5" d="M54.8,283.8c-0.8,0-1.5-0.1-1.9-0.4c-0.3-0.3-0.3-0.7-0.2-1.2c0.3-1,1.4-2.2,3.5-2.5l0,0
									c0.4,0,0.8,0.1,1.1,0.6c0.3,0.3,0.7,1,0.6,1.5c0,0,0,0.1,0,0.2c-0.1,0.5-0.3,1.7-1.4,1.8C56.3,283.7,55.6,283.8,54.8,283.8z
									 M56.4,280.7c-1.6,0.2-2.3,1-2.5,1.4c-0.2,0.3-0.3,0.6-0.2,0.7c0.2,0.1,1.6,0.1,2.8,0c0.3,0,0.4-0.5,0.5-1
									c0-0.1,0-0.2,0-0.2C57,281.3,56.6,280.8,56.4,280.7z"/>
							</g>
							<path class="st0" d="M56.5,280.5c0.3,0,0.7,0.6,0.7,0.8c-0.1,0.2-0.1,0.9-0.6,0.9c-0.4,0.1-1.7,0.2-1.9-0.1
								C54.4,281.9,54.9,280.7,56.5,280.5z"/>
						</g>
						<g>
							<g>
								<path class="st2" d="M58.2,280.8c0,0-0.4-0.2-1.2,0.2c-0.7,0.4-1.7,1-1.4,1.8c0.3,0.8,2.4,0.5,2.9,0.3s0.8-0.7,0.7-1.2
									C59,281,58.2,280.8,58.2,280.8z"/>
								<path class="st5" d="M57,283.8c-0.8,0-1.7-0.2-1.9-0.9c-0.4-1.2,1-2,1.7-2.4c0.8-0.5,1.4-0.4,1.6-0.3
									c0.4,0.1,1.2,0.6,1.3,1.6c0.1,0.7-0.3,1.5-1,1.7C58.5,283.7,57.8,283.8,57,283.8z M57.9,281.2c-0.1,0-0.3,0-0.6,0.2
									c-0.3,0.2-1.4,0.8-1.2,1.2c0.2,0.3,1.7,0.2,2.3,0c0.3-0.1,0.4-0.4,0.4-0.6c-0.1-0.6-0.6-0.8-0.6-0.8L57.9,281.2
									C58,281.2,58,281.2,57.9,281.2z"/>
							</g>
							<path class="st0" d="M58.4,281c0,0-0.2-0.1-0.7,0.1c-0.4,0.2-1,0.6-0.9,1.1c0.2,0.5,1.4,0.3,1.7,0.2s0.5-0.4,0.4-0.7
								C58.8,281.2,58.4,281,58.4,281z"/>
						</g>
						<g>
							<g>
								<path class="st2" d="M37.6,281c0,0-0.4-0.2-1.2,0.2c-0.7,0.4-1.7,1-1.4,1.8c0.3,0.8,2.4,0.5,2.9,0.3s0.8-0.7,0.7-1.2
									C38.5,281.2,37.6,281,37.6,281z"/>
								<path class="st5" d="M36.4,284.1c-0.8,0-1.7-0.2-1.9-0.9c-0.4-1.2,1-2,1.7-2.4c0.8-0.5,1.4-0.4,1.6-0.3
									c0.4,0.1,1.2,0.6,1.3,1.6c0.1,0.7-0.3,1.5-1,1.7C37.9,283.9,37.2,284.1,36.4,284.1z M37.4,281.4c-0.1,0-0.3,0-0.7,0.2
									c-0.3,0.2-1.4,0.8-1.2,1.2c0.2,0.3,1.7,0.2,2.3,0c0.3-0.1,0.4-0.4,0.4-0.6c-0.1-0.6-0.6-0.8-0.6-0.8L37.4,281.4L37.4,281.4z
									"/>
							</g>
							<path class="st0" d="M37.8,281.3c0,0-0.2-0.1-0.7,0.1c-0.4,0.2-1,0.6-0.9,1.1c0.2,0.5,1.4,0.3,1.7,0.2
								c0.3-0.1,0.5-0.4,0.4-0.7C38.3,281.4,37.8,281.3,37.8,281.3z"/>
						</g>
						<g>
							<g>
								<path class="st2" d="M40,280.4c0.5-0.1,1.3,1.1,1.2,1.4s-0.1,1.5-1,1.6c-0.6,0.1-2.8,0.3-3.3-0.2
									C36.5,282.8,37.3,280.8,40,280.4z"/>
								<path class="st5" d="M38.4,284.1c-0.8,0-1.5-0.1-1.9-0.4c-0.3-0.3-0.3-0.7-0.2-1.2c0.3-1,1.4-2.2,3.5-2.5l0,0
									c0.4,0,0.8,0.1,1.1,0.6c0.3,0.3,0.7,1,0.6,1.5c0,0,0,0.1,0,0.2c-0.1,0.5-0.3,1.7-1.4,1.8C39.9,284,39.2,284.1,38.4,284.1z
									 M40,280.9c-1.6,0.2-2.3,1-2.5,1.4c-0.2,0.3-0.3,0.6-0.2,0.7c0.2,0.1,1.6,0.1,2.8,0c0.3,0,0.4-0.5,0.5-1c0-0.1,0-0.2,0-0.2
									C40.7,281.6,40.3,281,40,280.9z"/>
							</g>
							<path class="st0" d="M40.1,280.7c0.3,0,0.7,0.6,0.7,0.8c-0.1,0.2-0.1,0.9-0.6,0.9c-0.4,0.1-1.7,0.2-1.9-0.1
								C38.1,282.1,38.6,281,40.1,280.7z"/>
						</g>
						<g>
							<g>
								<path class="st2" d="M82.1,280.2c0,0-1-0.8-2.3,0.3c-1.2,1-2.1,2.5-1.5,2.6s1.5,0.3,2.4,0.1c0.9-0.2,1.6,0,2-1.8
									C82.9,280.6,82.1,280.2,82.1,280.2z"/>
								<path class="st5" d="M79.8,283.6c-0.8,0-1.4-0.1-1.6-0.2c-0.2,0-0.3-0.2-0.3-0.4c-0.1-0.6,0.8-1.9,1.8-2.7
									c1.3-1.1,2.4-0.4,2.6-0.3c0.3,0.2,0.8,0.7,0.7,1.5c-0.3,1.7-1.1,1.8-1.8,1.9c-0.1,0-0.2,0-0.3,0
									C80.5,283.6,80.1,283.6,79.8,283.6z M81.2,280.2c-0.3,0-0.7,0.1-1.2,0.5c-1,0.9-1.7,2-1.6,2.2c0.2,0,1.2,0.3,2.3,0.1
									c0.1,0,0.2,0,0.3-0.1c0.7-0.1,1.1-0.2,1.4-1.5c0.1-0.6-0.4-1-0.5-1l0,0C81.9,280.4,81.7,280.2,81.2,280.2z"/>
							</g>
							<path class="st0" d="M81.9,280.5c0,0-0.6-0.5-1.4,0.2c-0.7,0.6-1.3,1.5-1,1.6s0.9,0.2,1.5,0.1c0.5-0.1,1,0,1.2-1.1
								C82.4,280.8,81.9,280.5,81.9,280.5z"/>
						</g>
						<g>
							<g>
								<path class="st2" d="M83.5,280.2c0.5-0.1,1.3,1.1,1.2,1.4c-0.1,0.3-0.1,1.5-1,1.6c-0.6,0.1-2.8,0.3-3.3-0.2
									C80,282.6,80.8,280.6,83.5,280.2z"/>
								<path class="st5" d="M81.9,283.6c-0.7,0-1.4-0.1-1.7-0.4c-0.2-0.2-0.2-0.6-0.1-1c0.3-1,1.5-2,3.3-2.3c0.4,0,0.7,0.2,0.9,0.5
									c0.3,0.3,0.6,0.9,0.5,1.2c0,0,0,0.1,0,0.2c-0.1,0.5-0.3,1.5-1.2,1.6C83.6,283.5,82.7,283.6,81.9,283.6z M83.6,280.5
									C83.5,280.5,83.5,280.5,83.6,280.5L83.6,280.5c-1.9,0.3-2.7,1.3-2.9,1.9c-0.1,0.3-0.1,0.4,0,0.5c0.3,0.3,2,0.2,3.1,0.1
									c0.5-0.1,0.6-0.7,0.7-1.2c0-0.1,0-0.2,0-0.2c0-0.1-0.2-0.5-0.5-0.9C83.8,280.5,83.6,280.5,83.6,280.5z"/>
							</g>
							<path class="st0" d="M83.7,280.5c0.3,0,0.7,0.6,0.7,0.8c-0.1,0.2-0.1,0.9-0.6,0.9c-0.4,0.1-1.7,0.2-1.9-0.1
								C81.6,281.9,82.1,280.7,83.7,280.5z"/>
						</g>
						<g>
							<g>
								<path class="st2" d="M85.3,280.8c0,0-0.4-0.2-1.2,0.2c-0.7,0.4-1.7,1-1.4,1.8c0.3,0.8,2.4,0.5,2.9,0.3s0.8-0.7,0.7-1.2
									C86.2,281,85.3,280.8,85.3,280.8z"/>
								<path class="st5" d="M84.1,283.6c-0.7,0-1.5-0.2-1.7-0.7c-0.4-1,0.9-1.8,1.6-2.1c0.8-0.5,1.3-0.3,1.4-0.3
									c0.2,0,1,0.3,1.2,1.4c0.1,0.6-0.3,1.2-0.9,1.4C85.5,283.5,84.8,283.6,84.1,283.6z M85.1,281c-0.2,0-0.4,0-0.8,0.3
									c-0.8,0.4-1.5,1-1.3,1.5s2.1,0.4,2.6,0.2c0.4-0.1,0.6-0.5,0.5-0.9c-0.2-0.8-0.8-1-0.8-1l0,0C85.2,281,85.2,281,85.1,281z"/>
							</g>
							<path class="st0" d="M85.5,281c0,0-0.2-0.1-0.7,0.1c-0.4,0.2-1,0.6-0.9,1.1c0.2,0.5,1.4,0.3,1.7,0.2c0.3-0.1,0.5-0.4,0.4-0.7
								C86,281.2,85.5,281,85.5,281z"/>
						</g>
						<g>
							<g>
								<path class="st2" d="M46.8,280.9c0.2-0.1,0.4-0.2,0.5-0.1c0.6,0.3,2.1,1.1,1.8,2.1c-0.2,0.8-0.8,0.6-1.7,0.6h-0.7
									c-0.2,0-0.3-0.1-0.4-0.2l0,0C45.8,282.7,46,281.5,46.8,280.9L46.8,280.9z"/>
								<path class="st5" d="M48.2,284.1c-0.1,0-0.2,0-0.3,0c-0.2,0-0.3,0-0.5,0h-0.7c-0.3,0-0.6-0.2-0.8-0.5
									c-0.5-0.9-0.3-2.3,0.6-3.1l0.4,0.3l-0.3-0.4c0.3-0.3,0.7-0.3,1.1-0.2c1.6,0.8,2.3,1.7,2,2.7C49.3,284,48.7,284.1,48.2,284.1
									z M47.1,281.3L47.1,281.3L47.1,281.3c-0.5,0.5-0.7,1.3-0.4,1.8h0.7c0.2,0,0.4,0,0.6,0c0.6,0,0.6,0,0.7-0.2
									C48.8,282.1,47.5,281.5,47.1,281.3z"/>
							</g>
							<path class="st0" d="M46.9,281.2c0.1-0.1,0.3-0.1,0.4-0.1c0.4,0.2,1.5,0.8,1.3,1.6c-0.2,0.6-0.5,0.4-1.3,0.4h-0.5
								c-0.1,0-0.2-0.1-0.3-0.2l0,0C46.1,282.4,46.3,281.6,46.9,281.2L46.9,281.2z"/>
						</g>
						<g>
							<g>
								<path class="st2" d="M43.3,280.6c0,0-0.9-0.9-2.3,0.1c-1.3,0.9-2.3,2.3-1.8,2.5s1.4,0.4,2.4,0.3c0.9-0.1,1.6,0.1,2.1-1.6
									C44,281.1,43.3,280.6,43.3,280.6z"/>
								<path class="st5" d="M41.2,284c-1,0-1.8-0.3-2.1-0.4c-0.3-0.1-0.4-0.3-0.5-0.6c-0.1-0.8,1.2-2.2,2.1-2.8
									c1.3-0.9,2.5-0.5,2.9-0.1c0.4,0.3,0.9,0.9,0.6,1.8c-0.5,1.7-1.3,1.9-2.2,2c-0.1,0-0.2,0-0.3,0C41.6,284,41.4,284,41.2,284z
									 M39.7,282.8c0.4,0.1,1.1,0.3,1.9,0.2c0.1,0,0.2,0,0.4,0c0.6,0,1,0,1.3-1.2c0.1-0.4-0.2-0.7-0.3-0.7h-0.1
									c-0.1-0.1-0.7-0.6-1.7,0.1C40.5,281.6,39.9,282.4,39.7,282.8z"/>
							</g>
							<path class="st0" d="M43.1,280.9c0,0-0.6-0.5-1.4,0c-0.8,0.5-1.4,1.4-1.1,1.5s0.9,0.3,1.5,0.2c0.5-0.1,1,0.1,1.3-1
								C43.5,281.2,43.1,280.9,43.1,280.9z"/>
						</g>
					</g>
				</g>
			</g>
			<path class="st9" d="M77,224.9c-0.5-0.6-1.4-0.7-1.9-0.2c0,0-4.3,3.5-12.8,3.8c-8,0.3-10.4-3.3-10.5-3.5l-0.7-1.1l-1.2,0.6
				c-6.6,3.4-12,2.1-12,2.1c-0.7-0.2-1.5,0.3-1.7,1c-0.2,0.7,0.3,1.5,1,1.7c0.2,0.1,5.8,1.4,13-1.8c1.4,1.4,4.6,3.8,11.1,3.8
				c0.3,0,0.7,0,1,0c9.5-0.4,14.3-4.3,14.5-4.5C77.4,226.3,77.5,225.5,77,224.9z"/>
		</g>
		<path class="st9" d="M52.9,231.8c-0.4-0.1-1.6-0.5-2.2-1.1c-0.6-0.5-1.4-0.4-1.9,0.2c-0.5,0.6-0.4,1.4,0.2,1.9
			c1.2,1,3,1.5,3.2,1.6c0.1,0,0.2,0.1,0.4,0.1c0.6,0,1.1-0.4,1.3-1C54,232.8,53.6,232,52.9,231.8z"/>
	</g>
	<path class="st10" d="M194.7,205.7h-1.9v-1.9c0-0.6-0.4-1-1-1s-1,0.4-1,1v1.9h-1.9c-0.6,0-1,0.4-1,1s0.4,1,1,1h1.9v1.9
		c0,0.6,0.4,1,1,1s1-0.4,1-1v-1.9h1.9c0.6,0,1-0.4,1-1S195.2,205.7,194.7,205.7z"/>
	<g>
		<path class="st10" d="M55.7,21H52v-3.7c0-0.8-0.7-1.5-1.5-1.5S49,16.5,49,17.3V21h-3.6c-0.8,0-1.5,0.7-1.5,1.5s0.7,1.5,1.5,1.5
			h3.7v3.7c0,0.8,0.7,1.5,1.5,1.5s1.5-0.7,1.5-1.5V24h3.7c0.8,0,1.5-0.7,1.5-1.5S56.5,21,55.7,21z"/>
		<path class="st10" d="M338.4,119.7h-3.7V116c0-0.8-0.7-1.5-1.5-1.5s-1.5,0.7-1.5,1.5v3.7H328c-0.8,0-1.5,0.7-1.5,1.5
			s0.7,1.5,1.5,1.5h3.7v3.7c0,0.8,0.7,1.5,1.5,1.5s1.5-0.7,1.5-1.5v-3.7h3.7c0.8,0,1.5-0.7,1.5-1.5S339.2,119.7,338.4,119.7z"/>
		<path class="st10" d="M315.2,14.2h-1.9v-1.9c0-0.6-0.4-1-1-1s-1,0.4-1,1v1.9h-1.9c-0.6,0-1,0.4-1,1s0.4,1,1,1h1.9v1.9
			c0,0.6,0.4,1,1,1s1-0.4,1-1v-1.9h1.9c0.6,0,1-0.4,1-1S315.7,14.2,315.2,14.2z"/>
		<path class="st10" d="M22.4,121.7h-1.9v-1.9c0-0.6-0.4-1-1-1s-1,0.4-1,1v1.9h-1.9c-0.6,0-1,0.4-1,1s0.4,1,1,1h1.9v1.9
			c0,0.6,0.4,1,1,1s1-0.4,1-1v-1.9h1.9c0.6,0,1-0.4,1-1S23,121.7,22.4,121.7z"/>
	</g>
	<g>
		<g>
			<g>
				<path class="st11" d="M166,15.8c6.6-6.9,15.8-11.1,26-11.1c13.6,0,25.3,7.6,31.7,18.7c5.4-2.4,11.5-3.8,17.9-3.8
					c24.4,0,44.2,20,44.2,44.6s-19.8,44.5-44.2,44.5c-2.9,0-5.9-0.3-8.7-0.9c-5.5,9.9-16,16.6-28.2,16.6c-5.1,0-9.9-1.2-14.2-3.2
					c-5.6,13.2-18.7,22.5-34,22.5c-15.9,0-29.4-10.1-34.6-24.2c-2.2,0.4-4.6,0.7-7,0.7c-18.9,0-34.2-15.5-34.2-34.6
					c0-12.8,6.9-24,17.1-30c-2.1-4.8-3.3-10.2-3.3-15.8C94.5,17.9,112.3,0,134.4,0C147.2,0.2,158.6,6.3,166,15.8z"/>
			</g>
			<g>
				<g>
					<path class="st2" d="M110.3,74.6c-0.1,0.4,0.1,0.4,0.1,0.4c0.4,0.3,0.8,0.4,1.2,0.7c2.1,1.1,4.1,1.4,6.2,1.4
						c4.2,0,6.8-2.2,6.8-5.8v-0.1c0-3.3-2.9-4.5-5.7-5.4l-0.4-0.1c-2.1-0.7-3.9-1.2-3.9-2.7v-0.1c0-1.2,1.1-2.1,2.7-2.1
						c1.8,0,3.9,0.6,5.3,1.3c0,0,0.4,0.3,0.5-0.1c0.1-0.2,0.8-2.1,0.9-2.3c0.1-0.2-0.1-0.4-0.2-0.4c-1.6-1-3.7-1.6-6.1-1.6h-0.4
						c-3.8,0-6.5,2.3-6.5,5.6v0.2c0,3.5,2.9,4.6,5.7,5.4l0.4,0.2c2.1,0.6,3.7,1.2,3.7,2.6v0.1c0,1.3-1.2,2.2-2.9,2.2
						c-0.7,0-2.9,0-5.4-1.5c-0.3-0.2-0.4-0.3-0.7-0.4c-0.1-0.1-0.4-0.2-0.5,0.2L110.3,74.6z"/>
					<path class="st2" d="M171.9,74.6C171.8,75,172,75,172,75c0.4,0.3,0.8,0.4,1.2,0.7c2.1,1.1,4.1,1.4,6.2,1.4
						c4.2,0,6.8-2.2,6.8-5.8v-0.1c0-3.3-2.9-4.5-5.7-5.4l-0.4-0.1c-2.1-0.7-3.9-1.2-3.9-2.7v-0.1c0-1.2,1.1-2.1,2.7-2.1
						c1.8,0,3.9,0.6,5.3,1.3c0,0,0.4,0.3,0.5-0.1c0.1-0.2,0.8-2.1,0.9-2.3c0.1-0.2-0.1-0.4-0.2-0.4c-1.6-1-3.7-1.6-6.1-1.6h-0.4
						c-3.8,0-6.5,2.3-6.5,5.6v0.2c0,3.5,2.9,4.6,5.7,5.4l0.4,0.2c2.1,0.6,3.7,1.2,3.7,2.6v0.1c0,1.3-1.2,2.2-2.9,2.2
						c-0.7,0-2.9,0-5.4-1.5c-0.3-0.2-0.4-0.3-0.7-0.4c-0.1-0.1-0.4-0.2-0.5,0.2L171.9,74.6z"/>
					<path class="st2" d="M217.5,63.8c-0.4-1.2-0.9-2.2-1.6-3c-0.7-0.9-1.6-1.5-2.7-2.1c-1.1-0.5-2.3-0.7-3.7-0.7s-2.7,0.3-3.7,0.7
						c-1.1,0.5-2,1.2-2.7,2.1s-1.2,1.9-1.6,3c-0.4,1.2-0.5,2.4-0.5,3.7c0,1.3,0.2,2.6,0.5,3.7c0.4,1.2,0.9,2.2,1.6,3
						c0.7,0.9,1.6,1.5,2.7,2.1c1.1,0.4,2.3,0.7,3.7,0.7s2.7-0.3,3.7-0.7c1.1-0.4,2-1.2,2.7-2.1s1.2-1.9,1.6-3
						c0.4-1.2,0.5-2.4,0.5-3.7C217.9,66.2,217.8,65,217.5,63.8 M213.9,67.5c0,2.1-0.4,3.7-1.2,4.8c-0.7,1.2-1.9,1.7-3.4,1.7
						c-1.6,0-2.7-0.5-3.4-1.7s-1.1-2.8-1.1-4.8c0-2.1,0.4-3.7,1.1-4.7s1.9-1.7,3.4-1.7s2.7,0.5,3.4,1.7
						C213.6,63.9,213.9,65.5,213.9,67.5"/>
					<path class="st2" d="M246.3,73.4c-0.1-0.4-0.4-0.2-0.4-0.2c-0.5,0.2-1.1,0.4-1.6,0.4c-0.6,0.1-1.2,0.2-2,0.2
						c-1.7,0-3-0.5-4-1.5s-1.5-2.6-1.5-4.8c0-2,0.4-3.5,1.3-4.6c0.9-1.2,2.1-1.7,3.9-1.7c1.4,0,2.6,0.2,3.7,0.5c0,0,0.3,0.1,0.4-0.3
						c0.3-0.9,0.5-1.4,0.9-2.4c0.1-0.3-0.2-0.4-0.2-0.4c-0.4-0.2-1.5-0.4-2.3-0.6c-0.8-0.1-1.6-0.2-2.7-0.2c-1.5,0-2.8,0.3-3.9,0.7
						c-1.2,0.5-2.1,1.2-2.9,2.1c-0.7,0.9-1.3,1.9-1.7,3s-0.5,2.4-0.5,3.7c0,2.9,0.8,5.3,2.3,7s3.9,2.6,7,2.6c1.8,0,3.7-0.4,5-0.9
						c0,0,0.3-0.1,0.2-0.4L246.3,73.4z"/>
					<path class="st2" d="M264.2,63.1c-0.3-1.2-1.1-2.2-1.5-2.8c-0.8-0.8-1.5-1.4-2.2-1.7c-1-0.4-2.1-0.7-3.4-0.7
						c-1.5,0-2.9,0.3-3.9,0.8c-1.1,0.5-2.1,1.2-2.8,2.1c-0.7,0.9-1.2,1.9-1.6,3.1s-0.5,2.4-0.5,3.8c0,1.3,0.2,2.7,0.5,3.8
						c0.4,1.2,1,2.1,1.7,3c0.8,0.9,1.8,1.5,3,2c1.2,0.4,2.7,0.7,4.3,0.7c3.5,0,5.3-0.8,6-1.2c0.1-0.1,0.3-0.2,0.1-0.5l-0.8-2.1
						c-0.1-0.4-0.4-0.2-0.4-0.2c-0.9,0.4-2.1,0.9-4.9,0.9c-1.9,0-3.2-0.5-4.1-1.4s-1.3-2.1-1.3-3.9h11.9c0,0,0.4,0,0.4-0.3
						C264.6,68.1,265,65.8,264.2,63.1z M252.4,65.6c0.2-1.2,0.4-2.1,1-2.8c0.7-1.1,1.9-1.7,3.4-1.7s2.6,0.6,3.3,1.7
						c0.4,0.7,0.7,1.7,0.8,2.8H252.4z"/>
					<path class="st2" d="M169.1,63.1c-0.3-1.2-1.1-2.2-1.5-2.8c-0.8-0.8-1.5-1.4-2.2-1.7c-1-0.4-2.1-0.7-3.4-0.7
						c-1.5,0-2.9,0.3-3.9,0.8s-2.1,1.2-2.8,2.1s-1.2,1.9-1.6,3.1c-0.4,1.2-0.5,2.4-0.5,3.8c0,1.3,0.2,2.7,0.5,3.8
						c0.4,1.2,1,2.1,1.7,3c0.8,0.9,1.8,1.5,3,2c1.2,0.4,2.7,0.7,4.3,0.7c3.5,0,5.3-0.8,6-1.2c0.1-0.1,0.3-0.2,0.1-0.5l-0.8-2.1
						c-0.1-0.4-0.4-0.2-0.4-0.2c-0.9,0.4-2.1,0.9-4.9,0.9c-1.9,0-3.2-0.5-4.1-1.4c-0.9-0.9-1.3-2.1-1.3-3.9h11.9c0,0,0.4,0,0.4-0.3
						C169.4,68.1,169.8,65.8,169.1,63.1z M157.2,65.6c0.2-1.2,0.4-2.1,1-2.8c0.7-1.1,1.9-1.7,3.4-1.7c1.6,0,2.6,0.6,3.3,1.7
						c0.4,0.7,0.7,1.7,0.8,2.8H157.2z"/>
					<path class="st2" d="M136.3,65c-0.4,0-1.1-0.1-1.9-0.1c-1,0-2,0.1-2.9,0.4s-1.8,0.6-2.5,1.2c-0.7,0.5-1.3,1.2-1.7,2
						s-0.6,1.7-0.6,2.8s0.2,2,0.5,2.7c0.4,0.7,0.9,1.3,1.5,1.9c0.6,0.4,1.5,0.8,2.4,1.1c0.9,0.2,2,0.4,3.1,0.4
						c1.2,0,2.4-0.1,3.6-0.3c1.2-0.2,2.6-0.4,3-0.6c0.4-0.1,0.8-0.2,0.8-0.2c0.3-0.1,0.3-0.4,0.3-0.4v-11c0-2.4-0.6-4.2-1.9-5.3
						c-1.2-1.1-3.1-1.6-5.4-1.6c-0.9,0-2.3,0.1-3.2,0.3c0,0-2.6,0.5-3.7,1.3c0,0-0.3,0.2-0.1,0.4l0.8,2.2c0.1,0.3,0.4,0.2,0.4,0.2
						s0.1,0,0.2-0.1c2.3-1.2,5.2-1.2,5.2-1.2c1.2,0,2.2,0.3,2.9,0.8c0.6,0.5,1,1.2,1,2.9v0.5C137.2,65.1,136.3,65,136.3,65z
						 M131.5,73.4c-0.4-0.4-0.5-0.4-0.7-0.7c-0.3-0.4-0.4-0.9-0.4-1.5c0-1.1,0.4-1.8,1.1-2.3c0,0,1-0.9,3.5-0.9
						c1.7,0,3.2,0.3,3.2,0.3v5.4l0,0c0,0-1.5,0.4-3.2,0.4C132.6,74.2,131.5,73.4,131.5,73.4z"/>
					<path class="st2" d="M232.1,58.9c0.1-0.3-0.1-0.4-0.2-0.4c-0.2-0.1-1.2-0.3-2-0.4c-1.5-0.1-2.3,0.2-3,0.5
						c-0.7,0.4-1.5,0.9-2.1,1.5v-1.4c0-0.2-0.2-0.4-0.4-0.4h-3c-0.2,0-0.4,0.2-0.4,0.4v17.7c0,0.2,0.2,0.4,0.4,0.4h3.1
						c0.2,0,0.4-0.2,0.4-0.4v-8.8c0-1.2,0.1-2.4,0.4-3.1c0.3-0.7,0.6-1.3,1.1-1.8c0.4-0.4,0.9-0.7,1.4-0.9s1.2-0.3,1.6-0.3
						c0.6,0,1.3,0.2,1.3,0.2c0.3,0,0.4-0.1,0.4-0.4C231.5,60.9,232,59.2,232.1,58.9z"/>
					<path class="st2" d="M202.9,50.7c-0.4-0.1-0.7-0.2-1.2-0.3c-0.4-0.1-1-0.1-1.6-0.1c-2.1,0-3.8,0.6-5,1.8c-1.2,1.2-2,3-2.4,5.3
						l-0.2,0.8h-2.7c0,0-0.4,0-0.4,0.4l-0.4,2.5c0,0.3,0.1,0.4,0.4,0.4h2.6l-2.7,14.9c-0.2,1.2-0.4,2.1-0.7,2.9
						c-0.3,0.7-0.5,1.2-0.8,1.7c-0.3,0.4-0.6,0.7-1.1,0.8c-0.4,0.2-0.9,0.2-1.4,0.2c-0.3,0-0.7-0.1-1-0.1c-0.3-0.1-0.4-0.1-0.6-0.2
						c0,0-0.3-0.1-0.4,0.2c-0.1,0.3-0.8,2.1-0.9,2.4c-0.1,0.3,0,0.4,0.2,0.4c0.4,0.1,0.6,0.2,1.1,0.4c0.6,0.2,1.2,0.2,1.8,0.2
						c1.1,0,2.1-0.2,2.9-0.4c0.8-0.3,1.5-0.8,2.2-1.5c0.7-0.8,1.2-1.6,1.5-2.7c0.4-1.1,0.8-2.4,1.1-4l2.7-15.2h3.9
						c0,0,0.4,0,0.4-0.4l0.4-2.5c0-0.3-0.1-0.4-0.4-0.4h-3.8c0-0.1,0.2-1.4,0.6-2.7c0.2-0.5,0.5-1,0.8-1.2c0.3-0.3,0.6-0.5,1-0.6
						s0.8-0.2,1.2-0.2s0.7,0,1,0.1c0.4,0.1,0.5,0.1,0.6,0.2c0.4,0.1,0.4,0,0.5-0.2l0.9-2.5C203.1,50.9,202.9,50.7,202.9,50.7z"/>
					<path class="st2" d="M149.7,76.4c0,0.2-0.2,0.4-0.4,0.4h-3.1c-0.2,0-0.4-0.2-0.4-0.4V51c0-0.2,0.2-0.4,0.4-0.4h3.1
						c0.2,0,0.4,0.2,0.4,0.4V76.4z"/>
				</g>
			</g>
		</g>
		<g>
			<path class="st12" d="M61.1,152.1c1.1,0,2.2,0.2,3.3,0.5c1.1,0.4,2,0.8,2.8,1.5l-1.2,2.1c-1.4-1-3-1.6-4.8-1.6
				c-1.9,0-3.4,0.6-4.4,2c-1,1.3-1.5,3-1.5,5.2c0,2.1,0.5,3.8,1.5,5.2c1,1.3,2.5,2,4.4,2c1.6,0,3.3-0.5,4.9-1.6l1.1,2.1
				c-1.8,1.3-3.8,2-6.2,2c-2,0-3.7-0.4-5-1.4c-1.3-0.9-2.2-2.1-2.8-3.6c-0.6-1.5-0.9-3-0.9-4.7c0-3,0.8-5.3,2.4-7.1
				C56.2,153,58.3,152.1,61.1,152.1z"/>
			<path class="st12" d="M86.3,161.9c0,1.9-0.4,3.6-1.1,5.1s-1.8,2.7-3.2,3.5c-1.4,0.8-3,1.3-4.9,1.3s-3.5-0.4-4.9-1.3
				c-1.4-0.8-2.4-2-3.2-3.5c-0.7-1.5-1.1-3.2-1.1-5c0-3,0.8-5.3,2.4-7.1s3.8-2.7,6.7-2.7c1.9,0,3.6,0.4,4.9,1.2
				c1.4,0.8,2.4,2,3.1,3.4C86,158.3,86.3,159.9,86.3,161.9z M71.3,161.9c0,2.2,0.5,4,1.5,5.3s2.5,2,4.4,2c2,0,3.5-0.7,4.5-2
				s1.5-3.1,1.5-5.3s-0.5-4-1.5-5.2c-1-1.3-2.5-2-4.5-2s-3.5,0.6-4.4,2C71.8,157.9,71.3,159.6,71.3,161.9z"/>
			<path class="st12" d="M89.8,156.8c0-1.3-0.1-2.7-0.2-4.2h2.9c0.1,0.6,0.2,1.5,0.2,2.6h0.1c0.6-0.9,1.4-1.6,2.4-2.3
				c1.1-0.6,2.2-0.9,3.6-0.9c1.5,0,2.8,0.3,3.8,1s1.7,1.6,2.1,2.7h0.1c0.6-1.1,1.5-2.1,2.5-2.7c1.1-0.7,2.3-1,3.8-1s2.7,0.3,3.7,1
				s1.7,1.5,2.2,2.6s0.7,2.3,0.7,3.5v11.8h-3v-11.2c0-1.5-0.3-2.7-1-3.6c-0.7-0.9-1.7-1.5-3.3-1.5c-1.1,0-2,0.3-2.8,0.9
				c-0.8,0.6-1.4,1.3-1.8,2.3c-0.4,0.9-0.6,2-0.6,3.1V171h-3v-11.5c0-1.4-0.4-2.6-1.1-3.5s-1.8-1.5-3.2-1.5c-1.5,0-2.8,0.6-3.7,1.7
				c-0.9,1.1-1.4,2.5-1.4,4.2V171h-3L89.8,156.8L89.8,156.8z"/>
			<path class="st12" d="M122,156.8c0-1.3-0.1-2.7-0.2-4.2h2.9c0.1,0.6,0.2,1.5,0.2,2.6h0.1c0.6-0.9,1.4-1.6,2.4-2.3
				c1.1-0.6,2.2-0.9,3.6-0.9c1.5,0,2.8,0.3,3.8,1s1.7,1.6,2.1,2.7h0.1c0.6-1.1,1.5-2.1,2.5-2.7c1.1-0.7,2.3-1,3.8-1s2.7,0.3,3.7,1
				s1.7,1.5,2.2,2.6s0.7,2.3,0.7,3.5v11.8h-3v-11.2c0-1.5-0.3-2.7-1-3.6c-0.7-0.9-1.7-1.5-3.3-1.5c-1.1,0-2,0.3-2.8,0.9
				c-0.8,0.6-1.4,1.3-1.8,2.3c-0.4,0.9-0.6,2-0.6,3.1V171h-3v-11.5c0-1.4-0.4-2.6-1.1-3.5c-0.7-0.9-1.8-1.5-3.2-1.5
				c-1.5,0-2.8,0.6-3.7,1.7c-0.9,1.1-1.4,2.5-1.4,4.2V171h-3V156.8L122,156.8z"/>
			<path class="st12" d="M169.8,163h-13.4c0.1,1.9,0.7,3.4,1.7,4.5s2.4,1.6,4.3,1.6c1.1,0,2-0.1,2.9-0.4s1.7-0.8,2.6-1.4l1.4,2
				c-1,0.8-2.1,1.3-3.3,1.7s-2.4,0.6-3.8,0.6c-2.8,0-4.9-0.9-6.5-2.7c-1.5-1.8-2.3-4.2-2.3-7.1c0-1.9,0.3-3.6,1-5
				c0.7-1.5,1.6-2.6,2.9-3.4c1.2-0.8,2.8-1.2,4.6-1.2c2.7,0,4.6,0.9,6,2.6c1.4,1.8,2.1,4,2.1,6.9C169.8,162.3,169.8,162.7,169.8,163
				z M166.9,160.6c-0.1-1.8-0.5-3.3-1.4-4.4c-0.9-1.1-2.2-1.6-3.8-1.6s-3,0.6-3.9,1.7c-0.9,1.1-1.4,2.6-1.5,4.4L166.9,160.6
				L166.9,160.6z"/>
			<path class="st12" d="M173.3,156.8c0-1.3-0.1-2.7-0.2-4.2h2.9c0.1,0.8,0.2,1.8,0.2,3h0.1c1.1-2.3,3-3.5,5.7-3.5
				c0.2,0,0.6,0.1,1.1,0.1l-0.2,2.7c-0.2-0.1-0.6-0.1-1.1-0.1c-1.7,0-3,0.6-4,1.8c-0.9,1.2-1.4,2.7-1.4,4.6v9.9h-3L173.3,156.8
				L173.3,156.8z"/>
			<path class="st12" d="M192.6,152.1c1.1,0,2.2,0.2,3.3,0.5c1.1,0.4,2,0.8,2.8,1.5l-1.2,2.1c-1.4-1-3-1.6-4.8-1.6
				c-1.9,0-3.4,0.6-4.4,2c-1,1.3-1.5,3-1.5,5.2c0,2.1,0.5,3.8,1.5,5.2c1,1.3,2.5,2,4.4,2c1.6,0,3.3-0.5,4.9-1.6l1.1,2.1
				c-1.8,1.3-3.8,2-6.2,2c-2,0-3.7-0.4-5-1.4c-1.3-0.9-2.2-2.1-2.8-3.6s-0.9-3-0.9-4.7c0-3,0.8-5.3,2.4-7.1
				C187.6,153,189.8,152.1,192.6,152.1z"/>
			<path class="st12" d="M216.2,163h-13.4c0.1,1.9,0.7,3.4,1.7,4.5s2.4,1.6,4.3,1.6c1.1,0,2-0.1,2.9-0.4s1.7-0.8,2.6-1.4l1.4,2
				c-1,0.8-2.1,1.3-3.3,1.7s-2.4,0.6-3.8,0.6c-2.8,0-4.9-0.9-6.5-2.7c-1.5-1.8-2.3-4.2-2.3-7.1c0-1.9,0.3-3.6,1-5
				c0.7-1.5,1.6-2.6,2.9-3.4c1.2-0.8,2.8-1.2,4.6-1.2c2.7,0,4.6,0.9,6,2.6c1.4,1.8,2.1,4,2.1,6.9C216.2,162.3,216.2,162.7,216.2,163
				z M213.3,160.6c-0.1-1.8-0.5-3.3-1.4-4.4c-0.9-1.1-2.2-1.6-3.8-1.6c-1.7,0-3,0.6-3.9,1.7c-0.9,1.1-1.4,2.6-1.5,4.4L213.3,160.6
				L213.3,160.6z"/>
			<path class="st12" d="M235,152.1c1.1,0,2.2,0.2,3.3,0.5c1.1,0.4,2,0.8,2.8,1.5l-1.2,2.1c-1.4-1-3-1.6-4.8-1.6
				c-1.9,0-3.4,0.6-4.4,2c-1,1.3-1.5,3-1.5,5.2c0,2.1,0.5,3.8,1.5,5.2c1,1.3,2.5,2,4.4,2c1.6,0,3.3-0.5,4.9-1.6l1.1,2.1
				c-1.8,1.3-3.8,2-6.2,2c-2,0-3.7-0.4-5-1.4c-1.3-0.9-2.2-2.1-2.8-3.6s-0.9-3-0.9-4.7c0-3,0.8-5.3,2.4-7.1
				C230,153,232.2,152.1,235,152.1z"/>
			<path class="st12" d="M247.5,145.4v25.7h-3v-25.7H247.5z"/>
			<path class="st12" d="M269.2,161.9c0,1.9-0.4,3.6-1.1,5.1s-1.8,2.7-3.2,3.5c-1.4,0.8-3,1.3-4.9,1.3s-3.5-0.4-4.9-1.3
				c-1.4-0.8-2.4-2-3.2-3.5c-0.7-1.5-1.1-3.2-1.1-5c0-3,0.8-5.3,2.4-7.1s3.8-2.7,6.7-2.7c1.9,0,3.6,0.4,4.9,1.2
				c1.4,0.8,2.4,2,3.1,3.4C268.9,158.3,269.2,159.9,269.2,161.9z M254.2,161.9c0,2.2,0.5,4,1.5,5.3s2.5,2,4.4,2c2,0,3.5-0.7,4.5-2
				s1.5-3.1,1.5-5.3s-0.5-4-1.5-5.2c-1-1.3-2.5-2-4.5-2s-3.5,0.6-4.4,2C254.6,157.9,254.2,159.6,254.2,161.9z"/>
			<path class="st12" d="M272.1,164v-11.3h3v10.9c0,1.7,0.4,3,1.1,4.1c0.7,1,1.9,1.5,3.3,1.5c1.7,0,3-0.6,4-1.9
				c1-1.3,1.5-2.8,1.5-4.7v-9.9h3v14.4c0,1.3,0.1,2.7,0.2,4.1h-2.9c-0.1-0.8-0.2-1.8-0.2-3H285c-1.3,2.3-3.4,3.5-6.2,3.5
				c-2.2,0-4-0.7-5.1-2.1C272.6,168.1,272.1,166.3,272.1,164z"/>
			<path class="st12" d="M308.6,171.1h-2.8c-0.2-1.1-0.2-2-0.2-2.8h-0.1c-1.4,2.1-3.5,3.3-6.5,3.3c-2.5,0-4.5-0.9-5.9-2.7
				s-2-4.1-2-7c0-1.8,0.3-3.5,1-5s1.7-2.7,2.9-3.5c1.2-0.9,2.7-1.3,4.4-1.3c2.4,0,4.4,0.8,5.9,2.4v-9.1h3V167
				C308.3,168.4,308.5,169.7,308.6,171.1z M305.3,163.2v-5.8c-0.7-0.9-1.5-1.6-2.4-2s-1.9-0.7-3.1-0.7c-1.7,0-3.2,0.7-4.1,2
				c-1,1.3-1.5,3.1-1.5,5.2c0,2.2,0.5,4,1.5,5.3s2.3,2,4,2s3.1-0.6,4.1-1.7C304.8,166.4,305.3,164.9,305.3,163.2z"/>
		</g>
	</g>
	<g>
		<path class="st2" d="M343.9,244.9h-16.1c0.6-2,0.9-4.2,0.9-6.4c0-12.7-10.3-23-23-23c-10.1,0-18.7,6.5-21.8,15.6
			c-1.1-0.2-2.2-0.4-3.4-0.4c-8.1,0-14.7,6.3-15.3,14.2h-13.7"/>
		<path class="st1" d="M251.6,246.2c-0.7,0-1.3-0.6-1.3-1.3c0-0.7,0.6-1.3,1.3-1.3h12.5c1.2-8.1,8.3-14.2,16.5-14.2
			c0.8,0,1.7,0.1,2.5,0.2c3.6-9.3,12.6-15.5,22.7-15.5c13.4,0,24.4,10.9,24.4,24.4c0,1.7-0.2,3.4-0.5,5.1H344c0.7,0,1.3,0.6,1.3,1.3
			s-0.6,1.3-1.3,1.3h-17.8l0.5-1.7c0.6-2,0.9-4,0.9-6.1c0-12-9.7-21.7-21.7-21.7c-9.3,0-17.5,5.9-20.5,14.7l-0.4,1.1l-1.2-0.3
			c-1-0.2-2-0.3-3.1-0.3c-7.3,0-13.4,5.7-14,13l-0.1,1.2L251.6,246.2L251.6,246.2z"/>
	</g>
</g>
</svg>
